<mxfile host="app.diagrams.net" modified="2023-01-23T14:54:47.949Z" agent="5.0 (Windows NT 10.0; Win64; x64) AppleWebKit/537.36 (KHTML, like Gecko) Chrome/109.0.0.0 Safari/537.36" etag="gnFukG8wWnnMqH12kquV" version="20.8.10" type="github">
  <diagram name="Page-1" id="UwzUnQ5jH6zoxPlmjCew">
    <mxGraphModel dx="1687" dy="936" grid="1" gridSize="10" guides="1" tooltips="1" connect="1" arrows="1" fold="1" page="1" pageScale="1" pageWidth="1169" pageHeight="827" background="#FFFFFF" math="0" shadow="0">
      <root>
        <mxCell id="0" />
        <mxCell id="1" parent="0" />
        <mxCell id="h6uiqYct_Y92gPMNIy-R-3" value="" style="rounded=1;whiteSpace=wrap;html=1;fontSize=18;fillColor=#FFFFFF;strokeColor=#FF0000;" vertex="1" parent="1">
          <mxGeometry x="585" y="200" width="492" height="280" as="geometry" />
        </mxCell>
        <mxCell id="h6uiqYct_Y92gPMNIy-R-4" style="edgeStyle=orthogonalEdgeStyle;rounded=0;sketch=0;orthogonalLoop=1;jettySize=auto;html=1;exitX=1;exitY=0.5;exitDx=0;exitDy=0;fontSize=13;" edge="1" parent="1" source="h6uiqYct_Y92gPMNIy-R-6">
          <mxGeometry relative="1" as="geometry">
            <mxPoint x="615" y="234.2608695652175" as="targetPoint" />
          </mxGeometry>
        </mxCell>
        <mxCell id="h6uiqYct_Y92gPMNIy-R-5" value="&lt;i&gt;user_id&lt;/i&gt;" style="edgeLabel;html=1;align=center;verticalAlign=middle;resizable=0;points=[];fontSize=13;" vertex="1" connectable="0" parent="h6uiqYct_Y92gPMNIy-R-4">
          <mxGeometry x="-0.2661" y="1" relative="1" as="geometry">
            <mxPoint x="24" y="1" as="offset" />
          </mxGeometry>
        </mxCell>
        <mxCell id="h6uiqYct_Y92gPMNIy-R-6" value="HTTP request" style="shape=image;verticalLabelPosition=bottom;labelBackgroundColor=#ffffff;verticalAlign=top;aspect=fixed;imageAspect=0;image=data:image/svg+xml,PHN2ZyB4bWxuczpjYz0iaHR0cDovL2NyZWF0aXZlY29tbW9ucy5vcmcvbnMjIiB4bWxuczpkYz0iaHR0cDovL3B1cmwub3JnL2RjL2VsZW1lbnRzLzEuMS8iIHhtbG5zOmlua3NjYXBlPSJodHRwOi8vd3d3Lmlua3NjYXBlLm9yZy9uYW1lc3BhY2VzL2lua3NjYXBlIiB4bWxuczpyZGY9Imh0dHA6Ly93d3cudzMub3JnLzE5OTkvMDIvMjItcmRmLXN5bnRheC1ucyMiIHhtbG5zOnNvZGlwb2RpPSJodHRwOi8vc29kaXBvZGkuc291cmNlZm9yZ2UubmV0L0RURC9zb2RpcG9kaS0wLmR0ZCIgeG1sbnM6c3ZnPSJodHRwOi8vd3d3LnczLm9yZy8yMDAwL3N2ZyIgeG1sbnM9Imh0dHA6Ly93d3cudzMub3JnLzIwMDAvc3ZnIiB4bWxuczp4bGluaz0iaHR0cDovL3d3dy53My5vcmcvMTk5OS94bGluayIgdmVyc2lvbj0iMS4xIiBpZD0ic3ZnODU1MTkiIGlua3NjYXBlOnZlcnNpb249IjAuOTIuMyAoMjQwNTU0NiwgMjAxOC0wMy0xMSkiIHNvZGlwb2RpOmRvY25hbWU9Imh0dHAuc3ZnIiB4PSIwcHgiIHk9IjBweCIgdmlld0JveD0iMCAwIDQ4IDQ4IiBzdHlsZT0iZW5hYmxlLWJhY2tncm91bmQ6bmV3IDAgMCA0OCA0ODsiIHhtbDpzcGFjZT0icHJlc2VydmUiPiYjeGE7PHNvZGlwb2RpOm5hbWVkdmlldyBib3JkZXJjb2xvcj0iIzY2NjY2NiIgYm9yZGVyb3BhY2l0eT0iMSIgZml0LW1hcmdpbi1ib3R0b209IjAiIGZpdC1tYXJnaW4tbGVmdD0iMCIgZml0LW1hcmdpbi1yaWdodD0iMCIgZml0LW1hcmdpbi10b3A9IjAiIGdyaWR0b2xlcmFuY2U9IjEwIiBndWlkZXRvbGVyYW5jZT0iMTAiIGlkPSJuYW1lZHZpZXc4NTUyMSIgaW5rc2NhcGU6Y3VycmVudC1sYXllcj0ic3ZnODU1MTkiIGlua3NjYXBlOmN4PSIzMi4xMzUwMjQiIGlua3NjYXBlOmN5PSIzMi4wMDA3NjkiIGlua3NjYXBlOnBhZ2VvcGFjaXR5PSIwIiBpbmtzY2FwZTpwYWdlc2hhZG93PSIyIiBpbmtzY2FwZTp3aW5kb3ctaGVpZ2h0PSIxMDE3IiBpbmtzY2FwZTp3aW5kb3ctbWF4aW1pemVkPSIxIiBpbmtzY2FwZTp3aW5kb3ctd2lkdGg9IjE5MjAiIGlua3NjYXBlOndpbmRvdy14PSItOCIgaW5rc2NhcGU6d2luZG93LXk9Ii04IiBpbmtzY2FwZTp6b29tPSIxMy4xMzYzNjQiIG9iamVjdHRvbGVyYW5jZT0iMTAiIHBhZ2Vjb2xvcj0iI2ZmZmZmZiIgc2hvd2dyaWQ9ImZhbHNlIj4mI3hhOwk8L3NvZGlwb2RpOm5hbWVkdmlldz4mI3hhOzxnIGlkPSJnODU1MTciIHRyYW5zZm9ybT0idHJhbnNsYXRlKC0wLjc5NSwtMC43NSkiPiYjeGE7CTx0aXRsZSBpZD0idGl0bGU4NTQ0MCI+UGFnZS0xPC90aXRsZT4mI3hhOwk8ZyBpZD0iZ3JvdXA1MjQ5LTEiIHRyYW5zZm9ybT0idHJhbnNsYXRlKDAuNzk1LC0wLjc1KSI+JiN4YTsJCTx0aXRsZSBpZD0idGl0bGU4NTQ0MiI+SFRUUDwvdGl0bGU+JiN4YTsJCTxnIGlkPSJzaGFwZTUyNTAtMiI+JiN4YTsJCQk8dGl0bGUgaWQ9InRpdGxlODU0NDQiPmNpcmNsZTE1MDU1PC90aXRsZT4mI3hhOwkJCTxjaXJjbGUgaWQ9ImVsbGlwc2U4NTQ0NiIgc3R5bGU9ImZpbGw6I0ZGRkZGRjsiIGN4PSIyNCIgY3k9IjI1LjUiIHI9IjI0Ii8+JiN4YTsJCTwvZz4mI3hhOwkJPGcgaWQ9InNoYXBlNTI1MS00IiB0cmFuc2Zvcm09InRyYW5zbGF0ZSgxLjQ5NzE5LC0xLjMxMjUpIj4mI3hhOwkJCTx0aXRsZSBpZD0idGl0bGU4NTQ0OSI+cGF0aDE1MDU3PC90aXRsZT4mI3hhOwkJCTxwYXRoIGlkPSJwYXRoODU0NTEiIGlua3NjYXBlOmNvbm5lY3Rvci1jdXJ2YXR1cmU9IjAiIHN0eWxlPSJmaWxsOiNGRkZGRkY7IiBkPSJNNDUuMzgsMjYuNjNjMCwwLjA2LDAsMC4xMiwwLDAuMTggICAgIGMwLDEyLjUzLTEwLjE2LDIyLjY5LTIyLjY5LDIyLjY5UzAsMzkuMzQsMCwyNi44MWMwLTAuMDYsMC0wLjEyLDAtMC4xOEMwLDE0LjEsMTAuMTYsMy45NCwyMi42OSwzLjk0UzQ1LjM4LDE0LjEsNDUuMzgsMjYuNjN6Ii8+JiN4YTsJCTwvZz4mI3hhOwkJPGcgaWQ9InNoYXBlNTI1Mi02IiB0cmFuc2Zvcm09InRyYW5zbGF0ZSg0LjE2MjUsLTM1LjI1KSI+JiN4YTsJCQk8dGl0bGUgaWQ9InRpdGxlODU0NTQiPnBhdGgxNTA1OTwvdGl0bGU+JiN4YTsJCQk8cGF0aCBpZD0icGF0aDg1NDU2IiBpbmtzY2FwZTpjb25uZWN0b3ItY3VydmF0dXJlPSIwIiBzdHlsZT0iZmlsbDpub25lOyIgZD0iTTAsNDcuN2MzLjI1LDEuMDUsMTAuODQsMS44LDE5Ljc1LDEuOCAgICAgYzguNjUsMCwxNi4xMS0wLjcsMTkuNS0xLjcyTDAsNDcuN3oiLz4mI3hhOwkJCSYjeGE7CQkJCTxwYXRoIGlkPSJwYXRoODU0NTgiIGlua3NjYXBlOmNvbm5lY3Rvci1jdXJ2YXR1cmU9IjAiIHN0eWxlPSJmaWxsOm5vbmU7c3Ryb2tlOiNEM0QzRDM7c3Ryb2tlLXdpZHRoOjEuNTtzdHJva2UtbWl0ZXJsaW1pdDozOyIgZD0iICAgICBNMCw0Ny43YzMuMjUsMS4wNSwxMC44NCwxLjgsMTkuNzUsMS44YzguNjUsMCwxNi4xMS0wLjcsMTkuNS0xLjcyIi8+JiN4YTsJCTwvZz4mI3hhOwkJPGcgaWQ9InNoYXBlNTI1My05IiB0cmFuc2Zvcm09InRyYW5zbGF0ZSgxMy40NCwtMjIuNzcpIj4mI3hhOwkJCTx0aXRsZSBpZD0idGl0bGU4NTQ2MSI+cGF0aDE1MDYxPC90aXRsZT4mI3hhOwkJCTxwYXRoIGlkPSJwYXRoODU0NjMiIGlua3NjYXBlOmNvbm5lY3Rvci1jdXJ2YXR1cmU9IjAiIHN0eWxlPSJmaWxsOiNEM0QzRDM7IiBkPSJNMTAuNTYsMjYuMjVjNC4yMSwwLDguODgsOC45LDkuMDUsMjEuNzVIMS41MSAgICAgQzEuNjgsMzUuMTUsNi4zNiwyNi4yNSwxMC41NiwyNi4yNXogTTEwLjU2LDI0Ljc1QzQuNzIsMjQuNzUsMCwzNS41LDAsNDguNzVjMCwwLjI2LDAsMC41LDAsMC43NWgyMS4xMWMwLTAuMjUsMC0wLjQ5LDAtMC43NSAgICAgYzAtMTMuMjUtNC43Mi0yNC0xMC41Ni0yNEgxMC41NnoiLz4mI3hhOwkJPC9nPiYjeGE7CQk8ZyBpZD0ic2hhcGU1MjU0LTExIiB0cmFuc2Zvcm09InRyYW5zbGF0ZSgxLjEzMjUsLTEuMTI1KSI+JiN4YTsJCQk8dGl0bGUgaWQ9InRpdGxlODU0NjYiPnBhdGgxNTA2MzwvdGl0bGU+JiN4YTsJCQk8cGF0aCBpZD0icGF0aDg1NDY4IiBpbmtzY2FwZTpjb25uZWN0b3ItY3VydmF0dXJlPSIwIiBzdHlsZT0iZmlsbDojNTVEMkY2OyIgZD0iTTIzLjA1LDQ5LjVDMTAuNCw0OS40NywwLjEzLDM5LjI3LDAsMjYuNjMgICAgIHYtMC4zOGg0Ni4xMnYwLjM4QzQ1Ljk5LDM5LjI4LDM1LjcsNDkuNDgsMjMuMDUsNDkuNXoiLz4mI3hhOwkJPC9nPiYjeGE7CQk8ZyBpZD0ic2hhcGU1MjU1LTEzIiB0cmFuc2Zvcm09InRyYW5zbGF0ZSgxLjUsLTcuMDI5NDQpIj4mI3hhOwkJCTx0aXRsZSBpZD0idGl0bGU4NTQ3MSI+cGF0aDE1MDY1PC90aXRsZT4mI3hhOwkJCTxwYXRoIGlkPSJwYXRoODU0NzMiIGlua3NjYXBlOmNvbm5lY3Rvci1jdXJ2YXR1cmU9IjAiIHN0eWxlPSJmaWxsOiM1NTZBOEE7IiBkPSJNMjIuNSwxMC4wM2MxMi40MywwLDIyLjUsMTAuMDcsMjIuNSwyMi41ICAgICBzLTEwLjA3LDIyLjUtMjIuNSwyMi41UzAsNDQuOTYsMCwzMi41M2wwLDBDMCwyMC4xLDEwLjA3LDEwLjAzLDIyLjUsMTAuMDN6IE0yMi41LDguNTNjLTEzLjI1LDAtMjQsMTAuNzUtMjQsMjRzMTAuNzUsMjQsMjQsMjQgICAgIHMyNC0xMC43NSwyNC0yNGwwLDBDNDYuNSwxOS4yOCwzNS43NSw4LjUzLDIyLjUsOC41M3oiLz4mI3hhOwkJPC9nPiYjeGE7CQk8ZyBpZD0ic2hhcGU1MjU2LTE1IiB0cmFuc2Zvcm09InRyYW5zbGF0ZSg0LjE2MjUsLTExLjc2KSI+JiN4YTsJCQk8dGl0bGUgaWQ9InRpdGxlODU0NzYiPnBhdGgxNTA2NzwvdGl0bGU+JiN4YTsJCQk8cGF0aCBpZD0icGF0aDg1NDc4IiBpbmtzY2FwZTpjb25uZWN0b3ItY3VydmF0dXJlPSIwIiBzdHlsZT0iZmlsbDpub25lOyIgZD0iTTAsNDkuNWMzLjI1LTEuMDYsMTAuODctMS44LDE5Ljc1LTEuOCAgICAgYzguNjUsMCwxNi4xMSwwLjcxLDE5LjUsMS43M0wwLDQ5LjV6Ii8+JiN4YTsJCQkmI3hhOwkJCQk8cGF0aCBpZD0icGF0aDg1NDgwIiBpbmtzY2FwZTpjb25uZWN0b3ItY3VydmF0dXJlPSIwIiBzdHlsZT0iZmlsbDpub25lO3N0cm9rZTojNTU2QThBO3N0cm9rZS13aWR0aDoxLjU7c3Ryb2tlLW1pdGVybGltaXQ6MzsiIGQ9IiAgICAgTTAsNDkuNWMzLjI1LTEuMDYsMTAuODctMS44LDE5Ljc1LTEuOGM4LjY1LDAsMTYuMTEsMC43MSwxOS41LDEuNzMiLz4mI3hhOwkJPC9nPiYjeGE7CQk8ZyBpZD0ic2hhcGU1MjU3LTE4IiB0cmFuc2Zvcm09InRyYW5zbGF0ZSgwLjcwNSwtMjQpIj4mI3hhOwkJCTx0aXRsZSBpZD0idGl0bGU4NTQ4MyI+bGluZTE1MDY5PC90aXRsZT4mI3hhOwkJCSYjeGE7CQkJCTxwYXRoIGlkPSJwYXRoODU0ODUiIGlua3NjYXBlOmNvbm5lY3Rvci1jdXJ2YXR1cmU9IjAiIHN0eWxlPSJmaWxsOm5vbmU7c3Ryb2tlOiM1NTZBOEE7c3Ryb2tlLXdpZHRoOjEuNTtzdHJva2UtbWl0ZXJsaW1pdDozOyIgZD0iICAgICBNMCw0OS41aDQ2Ljc5Ii8+JiN4YTsJCTwvZz4mI3hhOwkJPGcgaWQ9Imdyb3VwNTI1OC0yMSIgdHJhbnNmb3JtPSJ0cmFuc2xhdGUoOC42Nzc1LC0yNi43NTI1KSI+JiN4YTsJCQk8dGl0bGUgaWQ9InRpdGxlODU0ODgiPmcxNTA3OTwvdGl0bGU+JiN4YTsJCQk8ZyBpZD0ic2hhcGU1MjU5LTIyIj4mI3hhOwkJCQk8dGl0bGUgaWQ9InRpdGxlODU0OTAiPnBhdGgxNTA3MTwvdGl0bGU+JiN4YTsJCQkJPHBhdGggaWQ9InBhdGg4NTQ5MiIgaW5rc2NhcGU6Y29ubmVjdG9yLWN1cnZhdHVyZT0iMCIgc3R5bGU9ImZpbGw6IzU1NkE4QTsiIGQ9Ik03LjU5LDQ5LjQ5SDYuMDFWNDUuNEgxLjU3djQuMUgwdi05LjQ2aDEuNTcgICAgICBWNDRoNC40NHYtMy45N2gxLjU4VjQ5LjQ5eiIvPiYjeGE7CQkJPC9nPiYjeGE7CQkJPGcgaWQ9InNoYXBlNTI2MC0yNCIgdHJhbnNmb3JtPSJ0cmFuc2xhdGUoOSwtMC4wMDc1KSI+JiN4YTsJCQkJPHRpdGxlIGlkPSJ0aXRsZTg1NDk1Ij5wYXRoMTUwNzM8L3RpdGxlPiYjeGE7CQkJCTxwYXRoIGlkPSJwYXRoODU0OTciIGlua3NjYXBlOmNvbm5lY3Rvci1jdXJ2YXR1cmU9IjAiIHN0eWxlPSJmaWxsOiM1NTZBOEE7IiBkPSJNNi45OSw0MS4zOUg0LjI3djguMTFIMi43MXYtOC4xMUgwdi0xLjM0aDcgICAgICBMNi45OSw0MS4zOXoiLz4mI3hhOwkJCTwvZz4mI3hhOwkJCTxnIGlkPSJzaGFwZTUyNjEtMjYiIHRyYW5zZm9ybT0idHJhbnNsYXRlKDE2LjcxLC0wLjAwNzUpIj4mI3hhOwkJCQk8dGl0bGUgaWQ9InRpdGxlODU1MDAiPnBhdGgxNTA3NTwvdGl0bGU+JiN4YTsJCQkJPHBhdGggaWQ9InBhdGg4NTUwMiIgaW5rc2NhcGU6Y29ubmVjdG9yLWN1cnZhdHVyZT0iMCIgc3R5bGU9ImZpbGw6IzU1NkE4QTsiIGQ9Ik02Ljk5LDQxLjM5SDQuMjd2OC4xMUgyLjcxdi04LjExSDB2LTEuMzRoNyAgICAgIEw2Ljk5LDQxLjM5eiIvPiYjeGE7CQkJPC9nPiYjeGE7CQkJPGcgaWQ9InNoYXBlNTI2Mi0yOCIgdHJhbnNmb3JtPSJ0cmFuc2xhdGUoMjUuMDcyNSwtMC4wMDc1KSI+JiN4YTsJCQkJPHRpdGxlIGlkPSJ0aXRsZTg1NTA1Ij5wYXRoMTUwNzc8L3RpdGxlPiYjeGE7CQkJCTxwYXRoIGlkPSJwYXRoODU1MDciIGlua3NjYXBlOmNvbm5lY3Rvci1jdXJ2YXR1cmU9IjAiIHN0eWxlPSJmaWxsOiM1NTZBOEE7IiBkPSJNMS41Nyw0Ni4wN3YzLjQzSDB2LTkuNDVoMi44NiAgICAgIGMwLjkxLTAuMDYsMS44LDAuMjEsMi41MywwLjc1YzAuNjEsMC41NCwwLjk1LDEuMzMsMC45LDIuMTRjMC4wMywwLjg1LTAuMzIsMS42Ny0wLjk0LDIuMjVjLTAuNjksMC42MS0xLjYsMC45My0yLjUyLDAuODhIMS41NyAgICAgIHogTTEuNTcsNDEuMzR2My40MmgxLjAyYzAuNTQsMC4wMywxLjA3LTAuMTMsMS41LTAuNDZjMC4zNi0wLjM0LDAuNTUtMC44MiwwLjUyLTEuMzJjMC0xLjExLTAuNjQtMS42Ny0xLjkzLTEuNjdMMS41Nyw0MS4zNHoiLz4mI3hhOwkJCTwvZz4mI3hhOwkJPC9nPiYjeGE7CQk8ZyBpZD0ic2hhcGU1MjYzLTMwIiB0cmFuc2Zvcm09InRyYW5zbGF0ZSgxMy40NDc1KSI+JiN4YTsJCQk8dGl0bGUgaWQ9InRpdGxlODU1MTEiPnBhdGgxNTA4MTwvdGl0bGU+JiN4YTsJCQk8cGF0aCBpZD0icGF0aDg1NTEzIiBpbmtzY2FwZTpjb25uZWN0b3ItY3VydmF0dXJlPSIwIiBzdHlsZT0iZmlsbDojNTU2QThBOyIgZD0iTTE5LjYsMjYuMjVDMTkuNDMsMzkuMTEsMTQuNzYsNDgsMTAuNTUsNDggICAgIFMxLjY3LDM5LjExLDEuNSwyNi4yNUgxOS42eiBNMjEuMSwyNC43NUgwYzAsMC4yNSwwLDAuNSwwLDAuNzVjMCwxMy4yNSw0LjcyLDI0LDEwLjU2LDI0YzUuODMsMCwxMC41NS0xMC43NSwxMC41NS0yNCAgICAgYzAtMC4yNSwwLTAuNSwwLTAuNzVIMjEuMXoiLz4mI3hhOwkJPC9nPiYjeGE7CTwvZz4mI3hhOzwvZz4mI3hhOzwvc3ZnPg==;fontSize=12;" vertex="1" parent="1">
          <mxGeometry x="165" y="210" width="48" height="48" as="geometry" />
        </mxCell>
        <mxCell id="h6uiqYct_Y92gPMNIy-R-7" style="edgeStyle=orthogonalEdgeStyle;rounded=0;orthogonalLoop=1;jettySize=auto;html=1;fontSize=13;" edge="1" parent="1">
          <mxGeometry relative="1" as="geometry">
            <mxPoint x="674.9999999999998" y="390" as="targetPoint" />
            <mxPoint x="675" y="280" as="sourcePoint" />
          </mxGeometry>
        </mxCell>
        <mxCell id="h6uiqYct_Y92gPMNIy-R-8" value="&lt;i&gt;user_id&lt;/i&gt;" style="edgeLabel;html=1;align=center;verticalAlign=middle;resizable=0;points=[];fontSize=13;" vertex="1" connectable="0" parent="h6uiqYct_Y92gPMNIy-R-7">
          <mxGeometry x="-0.2182" relative="1" as="geometry">
            <mxPoint x="-3" y="17" as="offset" />
          </mxGeometry>
        </mxCell>
        <mxCell id="h6uiqYct_Y92gPMNIy-R-9" style="edgeStyle=orthogonalEdgeStyle;rounded=0;sketch=0;orthogonalLoop=1;jettySize=auto;html=1;fontSize=13;startArrow=none;" edge="1" parent="1" source="h6uiqYct_Y92gPMNIy-R-31">
          <mxGeometry relative="1" as="geometry">
            <mxPoint x="635" y="210" as="sourcePoint" />
            <mxPoint x="145" y="480" as="targetPoint" />
            <Array as="points">
              <mxPoint x="95" y="160" />
              <mxPoint x="95" y="480" />
            </Array>
          </mxGeometry>
        </mxCell>
        <mxCell id="h6uiqYct_Y92gPMNIy-R-10" value="HTTP triggered&lt;br&gt;Azure function" style="aspect=fixed;html=1;points=[];align=center;image;fontSize=12;image=img/lib/azure2/compute/Function_Apps.svg;" vertex="1" parent="1">
          <mxGeometry x="635" y="204" width="68" height="60" as="geometry" />
        </mxCell>
        <mxCell id="h6uiqYct_Y92gPMNIy-R-13" style="edgeStyle=orthogonalEdgeStyle;rounded=0;sketch=0;orthogonalLoop=1;jettySize=auto;html=1;fontSize=13;" edge="1" parent="1">
          <mxGeometry relative="1" as="geometry">
            <mxPoint x="695" y="670" as="targetPoint" />
            <mxPoint x="695" y="490" as="sourcePoint" />
            <Array as="points">
              <mxPoint x="695.48" y="540" />
              <mxPoint x="694.48" y="540" />
            </Array>
          </mxGeometry>
        </mxCell>
        <mxCell id="h6uiqYct_Y92gPMNIy-R-37" style="edgeStyle=orthogonalEdgeStyle;rounded=0;orthogonalLoop=1;jettySize=auto;html=1;fontSize=29;" edge="1" parent="1">
          <mxGeometry relative="1" as="geometry">
            <mxPoint x="710" y="425" as="sourcePoint" />
            <mxPoint x="970" y="425" as="targetPoint" />
            <Array as="points">
              <mxPoint x="880" y="425" />
              <mxPoint x="880" y="425" />
            </Array>
          </mxGeometry>
        </mxCell>
        <mxCell id="h6uiqYct_Y92gPMNIy-R-38" value="&lt;font style=&quot;font-size: 13px;&quot;&gt;&lt;i style=&quot;font-size: 13px;&quot;&gt;user_id&lt;/i&gt;&lt;/font&gt;" style="edgeLabel;html=1;align=center;verticalAlign=middle;resizable=0;points=[];fontSize=13;" vertex="1" connectable="0" parent="h6uiqYct_Y92gPMNIy-R-37">
          <mxGeometry x="0.3499" y="-2" relative="1" as="geometry">
            <mxPoint x="-54" y="-7" as="offset" />
          </mxGeometry>
        </mxCell>
        <mxCell id="h6uiqYct_Y92gPMNIy-R-14" value="Azure blob storage" style="verticalLabelPosition=bottom;html=1;verticalAlign=top;align=center;strokeColor=none;fillColor=#00BEF2;shape=mxgraph.azure.storage_blob;fontSize=13;" vertex="1" parent="1">
          <mxGeometry x="653" y="402.5" width="50" height="45" as="geometry" />
        </mxCell>
        <mxCell id="h6uiqYct_Y92gPMNIy-R-39" style="edgeStyle=orthogonalEdgeStyle;rounded=0;orthogonalLoop=1;jettySize=auto;html=1;fontSize=13;" edge="1" parent="1" source="h6uiqYct_Y92gPMNIy-R-16">
          <mxGeometry relative="1" as="geometry">
            <mxPoint x="710" y="234" as="targetPoint" />
            <Array as="points">
              <mxPoint x="1005" y="234" />
            </Array>
          </mxGeometry>
        </mxCell>
        <mxCell id="h6uiqYct_Y92gPMNIy-R-40" value="&lt;i&gt;5 article_ids&lt;/i&gt;" style="edgeLabel;html=1;align=center;verticalAlign=middle;resizable=0;points=[];fontSize=13;" vertex="1" connectable="0" parent="h6uiqYct_Y92gPMNIy-R-39">
          <mxGeometry x="0.2189" y="-1" relative="1" as="geometry">
            <mxPoint as="offset" />
          </mxGeometry>
        </mxCell>
        <mxCell id="h6uiqYct_Y92gPMNIy-R-16" value="Model" style="sketch=0;outlineConnect=0;fontColor=#232F3E;gradientColor=none;fillColor=#067F68;strokeColor=none;dashed=0;verticalLabelPosition=bottom;verticalAlign=top;align=center;html=1;fontSize=12;fontStyle=0;aspect=fixed;pointerEvents=1;shape=mxgraph.aws4.sagemaker_model;" vertex="1" parent="1">
          <mxGeometry x="980" y="402.5" width="50" height="50" as="geometry" />
        </mxCell>
        <mxCell id="h6uiqYct_Y92gPMNIy-R-17" style="edgeStyle=orthogonalEdgeStyle;rounded=0;sketch=0;orthogonalLoop=1;jettySize=auto;html=1;fontSize=13;" edge="1" parent="1">
          <mxGeometry relative="1" as="geometry">
            <mxPoint x="188.9949999999999" y="290" as="targetPoint" />
            <mxPoint x="189" y="450" as="sourcePoint" />
          </mxGeometry>
        </mxCell>
        <mxCell id="h6uiqYct_Y92gPMNIy-R-18" value="&lt;i&gt;user_id&lt;/i&gt;" style="edgeLabel;html=1;align=center;verticalAlign=middle;resizable=0;points=[];fontSize=13;" vertex="1" connectable="0" parent="h6uiqYct_Y92gPMNIy-R-17">
          <mxGeometry x="-0.2289" y="-2" relative="1" as="geometry">
            <mxPoint x="-2" y="-9" as="offset" />
          </mxGeometry>
        </mxCell>
        <mxCell id="h6uiqYct_Y92gPMNIy-R-19" style="edgeStyle=orthogonalEdgeStyle;rounded=0;sketch=0;orthogonalLoop=1;jettySize=auto;html=1;fontSize=13;" edge="1" parent="1">
          <mxGeometry relative="1" as="geometry">
            <mxPoint x="189" y="680" as="targetPoint" />
            <mxPoint x="189" y="530" as="sourcePoint" />
          </mxGeometry>
        </mxCell>
        <mxCell id="h6uiqYct_Y92gPMNIy-R-20" value="&lt;i&gt;user clicks on articles&lt;/i&gt;" style="edgeLabel;html=1;align=center;verticalAlign=middle;resizable=0;points=[];fontSize=13;" vertex="1" connectable="0" parent="h6uiqYct_Y92gPMNIy-R-19">
          <mxGeometry x="0.2461" relative="1" as="geometry">
            <mxPoint y="-33" as="offset" />
          </mxGeometry>
        </mxCell>
        <mxCell id="h6uiqYct_Y92gPMNIy-R-21" value="Article app" style="shape=image;verticalLabelPosition=bottom;labelBackgroundColor=#ffffff;verticalAlign=top;aspect=fixed;imageAspect=0;image=data:image/svg+xml,PHN2ZyB4bWxuczpjYz0iaHR0cDovL2NyZWF0aXZlY29tbW9ucy5vcmcvbnMjIiB4bWxuczpkYz0iaHR0cDovL3B1cmwub3JnL2RjL2VsZW1lbnRzLzEuMS8iIHhtbG5zOmlua3NjYXBlPSJodHRwOi8vd3d3Lmlua3NjYXBlLm9yZy9uYW1lc3BhY2VzL2lua3NjYXBlIiB4bWxuczpyZGY9Imh0dHA6Ly93d3cudzMub3JnLzE5OTkvMDIvMjItcmRmLXN5bnRheC1ucyMiIHhtbG5zOnNvZGlwb2RpPSJodHRwOi8vc29kaXBvZGkuc291cmNlZm9yZ2UubmV0L0RURC9zb2RpcG9kaS0wLmR0ZCIgeG1sbnM6c3ZnPSJodHRwOi8vd3d3LnczLm9yZy8yMDAwL3N2ZyIgeG1sbnM9Imh0dHA6Ly93d3cudzMub3JnLzIwMDAvc3ZnIiB4bWxuczp4bGluaz0iaHR0cDovL3d3dy53My5vcmcvMTk5OS94bGluayIgdmVyc2lvbj0iMS4xIiBpZD0ic3ZnMTE1MTUxIiBpbmtzY2FwZTp2ZXJzaW9uPSIwLjkyLjMgKDI0MDU1NDYsIDIwMTgtMDMtMTEpIiBzb2RpcG9kaTpkb2NuYW1lPSJ3ZWJzaXRlLnN2ZyIgeD0iMHB4IiB5PSIwcHgiIHZpZXdCb3g9IjAgMCA5NS4yNSA3Mi42NCIgc3R5bGU9ImVuYWJsZS1iYWNrZ3JvdW5kOm5ldyAwIDAgOTUuMjUgNzIuNjQ7IiB4bWw6c3BhY2U9InByZXNlcnZlIj4mI3hhOzxzb2RpcG9kaTpuYW1lZHZpZXcgYm9yZGVyY29sb3I9IiM2NjY2NjYiIGJvcmRlcm9wYWNpdHk9IjEiIGZpdC1tYXJnaW4tYm90dG9tPSIwIiBmaXQtbWFyZ2luLWxlZnQ9IjAiIGZpdC1tYXJnaW4tcmlnaHQ9IjAiIGZpdC1tYXJnaW4tdG9wPSIwIiBncmlkdG9sZXJhbmNlPSIxMCIgZ3VpZGV0b2xlcmFuY2U9IjEwIiBpZD0ibmFtZWR2aWV3MTE1MTUzIiBpbmtzY2FwZTpjdXJyZW50LWxheWVyPSJzdmcxMTUxNTEiIGlua3NjYXBlOmN4PSI2My41IiBpbmtzY2FwZTpjeT0iNDguNDI1MzAzIiBpbmtzY2FwZTpwYWdlb3BhY2l0eT0iMCIgaW5rc2NhcGU6cGFnZXNoYWRvdz0iMiIgaW5rc2NhcGU6d2luZG93LWhlaWdodD0iMTAxNyIgaW5rc2NhcGU6d2luZG93LW1heGltaXplZD0iMSIgaW5rc2NhcGU6d2luZG93LXdpZHRoPSIxOTIwIiBpbmtzY2FwZTp3aW5kb3cteD0iLTgiIGlua3NjYXBlOndpbmRvdy15PSItOCIgaW5rc2NhcGU6em9vbT0iOC43NzA3NTgxIiBvYmplY3R0b2xlcmFuY2U9IjEwIiBwYWdlY29sb3I9IiNmZmZmZmYiIHNob3dncmlkPSJmYWxzZSI+JiN4YTsJPC9zb2RpcG9kaTpuYW1lZHZpZXc+JiN4YTs8ZyBpZD0iZzExNTE0OSIgdHJhbnNmb3JtPSJ0cmFuc2xhdGUoLTAuNzUsLTAuNzQ1NTUxNDcpIj4mI3hhOwk8dGl0bGUgaWQ9InRpdGxlMTE0ODExIj5QYWdlLTE8L3RpdGxlPiYjeGE7CTxnIGlkPSJncm91cDczNzQtMSIgdHJhbnNmb3JtPSJ0cmFuc2xhdGUoMC43NSwtMC43NSkiPiYjeGE7CQk8dGl0bGUgaWQ9InRpdGxlMTE0ODEzIj5XZWJzaXRlPC90aXRsZT4mI3hhOwkJPGcgaWQ9InNoYXBlNzM3NS0yIiB0cmFuc2Zvcm09InRyYW5zbGF0ZSg0My44MzUzLC01NS40NDI3KSI+JiN4YTsJCQk8dGl0bGUgaWQ9InRpdGxlMTE0ODE1Ij5TaGVldC43Mzc1PC90aXRsZT4mI3hhOwkJCTxwYXRoIGlkPSJwYXRoMTE0ODE3IiBpbmtzY2FwZTpjb25uZWN0b3ItY3VydmF0dXJlPSIwIiBzdHlsZT0iZmlsbDojQkZFNUU4OyIgZD0iTTIuNjQsNjguODZjMS40NiwwLDIuNjQsMS4xOCwyLjY0LDIuNjQgICAgIHMtMS4xOCwyLjY0LTIuNjQsMi42NFMwLDcyLjk2LDAsNzEuNVMxLjE4LDY4Ljg2LDIuNjQsNjguODZ6Ii8+JiN4YTsJCTwvZz4mI3hhOwkJPGcgaWQ9InNoYXBlNzM3Ni00IiB0cmFuc2Zvcm09InRyYW5zbGF0ZSgzMS4wMDA3LC0yLjQxMzgzKSI+JiN4YTsJCQk8dGl0bGUgaWQ9InRpdGxlMTE0ODIwIj5TaGVldC43Mzc2PC90aXRsZT4mI3hhOwkJCTxwYXRoIGlkPSJwYXRoMTE0ODIyIiBpbmtzY2FwZTpjb25uZWN0b3ItY3VydmF0dXJlPSIwIiBzdHlsZT0iZmlsbDojQTdBOUFDOyIgZD0iTTI2LjU0LDY0LjAySDE2LjQ3SDYuMzkgICAgIGMwLDAsMS44NCw5LjE3LTYuMzksMTAuMTJoMTYuNDdoMTYuNDZDMjQuNyw3My4xOSwyNi41NCw2NC4wMiwyNi41NCw2NC4wMnoiLz4mI3hhOwkJPC9nPiYjeGE7CQk8ZyBpZD0ic2hhcGU3Mzc3LTYiIHRyYW5zZm9ybT0idHJhbnNsYXRlKDI5LjM3NTQpIj4mI3hhOwkJCTx0aXRsZSBpZD0idGl0bGUxMTQ4MjUiPlNoZWV0LjczNzc8L3RpdGxlPiYjeGE7CQkJPHJlY3QgaWQ9InJlY3QxMTQ4MjciIHg9IjAiIHk9IjcxLjcyIiBzdHlsZT0iZmlsbDojQkZCRkJGOyIgd2lkdGg9IjM2LjE5IiBoZWlnaHQ9IjIuNDEiLz4mI3hhOwkJPC9nPiYjeGE7CQk8ZyBpZD0ic2hhcGU3Mzc4LTgiIHRyYW5zZm9ybT0idHJhbnNsYXRlKDAsLTE1Ljk3NDYpIj4mI3hhOwkJCTx0aXRsZSBpZD0idGl0bGUxMTQ4MzAiPlNoZWV0LjczNzg8L3RpdGxlPiYjeGE7CQkJPHBhdGggaWQ9InBhdGgxMTQ4MzIiIGlua3NjYXBlOmNvbm5lY3Rvci1jdXJ2YXR1cmU9IjAiIHN0eWxlPSJmaWxsOiMwQzJGNEY7IiBkPSJNOTUuMjUsNzIuMThjMCwxLjA4LTAuOTQsMS45Ni0yLjExLDEuOTZIMi4xMSAgICAgQzAuOTQsNzQuMTQsMCw3My4yNiwwLDcyLjE4VjE5LjQzYzAtMS4wOCwwLjk0LTEuOTYsMi4xMS0xLjk2aDkxLjAzYzEuMTcsMCwyLjExLDAuODgsMi4xMSwxLjk2VjcyLjE4eiIvPiYjeGE7CQk8L2c+JiN4YTsJCTxnIGlkPSJzaGFwZTczNzktMTAiIHRyYW5zZm9ybT0idHJhbnNsYXRlKDIuMTA2MzUsLTIxLjEwNikiPiYjeGE7CQkJPHRpdGxlIGlkPSJ0aXRsZTExNDgzNSI+U2hlZXQuNzM3OTwvdGl0bGU+JiN4YTsJCQk8cmVjdCBpZD0icmVjdDExNDgzNyIgeD0iMCIgeT0iMjQuODQiIHN0eWxlPSJmaWxsOiMwMEFFRUY7IiB3aWR0aD0iOTAuNzIiIGhlaWdodD0iNDkuMjkiLz4mI3hhOwkJPC9nPiYjeGE7CQk8ZyBpZD0ic2hhcGU3MzgwLTEyIiB0cmFuc2Zvcm09InRyYW5zbGF0ZSgwLC0xMS45NjQzKSI+JiN4YTsJCQk8dGl0bGUgaWQ9InRpdGxlMTE0ODQwIj5TaGVldC43MzgwPC90aXRsZT4mI3hhOwkJCTxwYXRoIGlkPSJwYXRoMTE0ODQyIiBpbmtzY2FwZTpjb25uZWN0b3ItY3VydmF0dXJlPSIwIiBzdHlsZT0iZmlsbDojQkZCRkJGOyIgZD0iTTAsNjcuNDN2NC42OGMwLDEuMTIsMC45NCwyLjAzLDIuMTEsMi4wMyAgICAgaDkxLjAzYzEuMTcsMCwyLjExLTAuOTEsMi4xMS0yLjAzdi00LjY4SDB6Ii8+JiN4YTsJCTwvZz4mI3hhOwkJPGcgaWQ9Imdyb3VwNzM4MS0xNCIgdHJhbnNmb3JtPSJ0cmFuc2xhdGUoODYuMzM3LC0xMy43MzU2KSI+JiN4YTsJCQk8dGl0bGUgaWQ9InRpdGxlMTE0ODQ1Ij5TaGVldC43MzgxPC90aXRsZT4mI3hhOwkJCTxnIGlkPSJzaGFwZTczODItMTUiIHRyYW5zZm9ybT0idHJhbnNsYXRlKDEuMzg0ODUsLTEuMzU3OTQpIj4mI3hhOwkJCQk8dGl0bGUgaWQ9InRpdGxlMTE0ODQ3Ij5TaGVldC43MzgyPC90aXRsZT4mI3hhOwkJCQk8cGF0aCBpZD0icGF0aDExNDg0OSIgaW5rc2NhcGU6Y29ubmVjdG9yLWN1cnZhdHVyZT0iMCIgc3R5bGU9ImZpbGw6IzAwQUVFRjtmaWxsLW9wYWNpdHk6MC42OyIgZD0iTTAuMjgsNzQuMTQgICAgICBDMC4xMyw3NC4xNCwwLDc0LDAsNzMuODN2LTEuNTJjMC0wLjE2LDAuMTMtMC4zLDAuMjgtMC4zYzAuMTYsMCwwLjI5LDAuMTQsMC4yOSwwLjN2MS41MkMwLjU3LDc0LDAuNDQsNzQuMTQsMC4yOCw3NC4xNHoiLz4mI3hhOwkJCTwvZz4mI3hhOwkJCTxnIGlkPSJzaGFwZTczODMtMTciPiYjeGE7CQkJCTx0aXRsZSBpZD0idGl0bGUxMTQ4NTIiPlNoZWV0LjczODM8L3RpdGxlPiYjeGE7CQkJCTxwYXRoIGlkPSJwYXRoMTE0ODU0IiBpbmtzY2FwZTpjb25uZWN0b3ItY3VydmF0dXJlPSIwIiBzdHlsZT0iZmlsbDojMDBBRUVGO2ZpbGwtb3BhY2l0eTowLjY7IiBkPSJNMS42Nyw3NC4xNCAgICAgIEMwLjc1LDc0LjE0LDAsNzMuMzksMCw3Mi40N2MwLTAuNDksMC4yMi0wLjk2LDAuNTktMS4yOGMwLjExLTAuMDksMC4yNy0wLjA3LDAuMzYsMC4wM2MwLjA4LDAuMTEsMC4wNywwLjI2LTAuMDQsMC4zNSAgICAgIGMtMC4yNiwwLjIzLTAuNDEsMC41NS0wLjQxLDAuOWMwLDAuNjUsMC41MiwxLjE3LDEuMTcsMS4xN2MwLjY0LDAsMS4xNy0wLjUyLDEuMTctMS4xN2MwLTAuMzUtMC4xNS0wLjY3LTAuNDItMC45ICAgICAgYy0wLjEtMC4wOS0wLjEyLTAuMjQtMC4wMy0wLjM1YzAuMDktMC4xLDAuMjUtMC4xMiwwLjM1LTAuMDNjMC4zOCwwLjMyLDAuNiwwLjc5LDAuNiwxLjI4QzMuMzQsNzMuMzksMi41OSw3NC4xNCwxLjY3LDc0LjE0eiIvPiYjeGE7CQkJPC9nPiYjeGE7CQk8L2c+JiN4YTsJCTxnIGlkPSJzaGFwZTczODQtMTkiIHRyYW5zZm9ybT0idHJhbnNsYXRlKDEyLjM1NDksLTI3LjQ4OCkiPiYjeGE7CQkJPHRpdGxlIGlkPSJ0aXRsZTExNDg1OCI+U2hlZXQuNzM4NDwvdGl0bGU+JiN4YTsJCQk8cGF0aCBpZD0icGF0aDExNDg2MCIgaW5rc2NhcGU6Y29ubmVjdG9yLWN1cnZhdHVyZT0iMCIgc3R5bGU9ImZpbGw6I0QxRDNENDsiIGQ9Ik02OC40Myw3Mi43M2MwLDAuNzgtMC42OCwxLjQxLTEuNTIsMS40MUgxLjUxICAgICBDMC42OCw3NC4xNCwwLDczLjUxLDAsNzIuNzNWMzQuODRjMC0wLjc4LDAuNjgtMS40MSwxLjUxLTEuNDFoNjUuNGMwLjg0LDAsMS41MiwwLjYzLDEuNTIsMS40MVY3Mi43M3oiLz4mI3hhOwkJPC9nPiYjeGE7CQk8ZyBpZD0ic2hhcGU3Mzg1LTIxIiB0cmFuc2Zvcm09InRyYW5zbGF0ZSgxNy4zNDAxLC02My4zMjc2KSI+JiN4YTsJCQk8dGl0bGUgaWQ9InRpdGxlMTE0ODYzIj5TaGVldC43Mzg1PC90aXRsZT4mI3hhOwkJCTxwYXRoIGlkPSJwYXRoMTE0ODY1IiBpbmtzY2FwZTpjb25uZWN0b3ItY3VydmF0dXJlPSIwIiBzdHlsZT0iZmlsbDojNTg1OTVCOyIgZD0iTTEuMzksNzMuNTd2MC4yOEgwLjUxbDAuMjksMC4yOUgwLjQzTDAsNzMuNzEgICAgIGwwLjQzLTAuNDJIMC44bC0wLjI5LDAuMjhIMS4zOXoiLz4mI3hhOwkJPC9nPiYjeGE7CQk8ZyBpZD0ic2hhcGU3Mzg2LTIzIiB0cmFuc2Zvcm09InRyYW5zbGF0ZSgxOS42NDI4LC02My4zMjc2KSI+JiN4YTsJCQk8dGl0bGUgaWQ9InRpdGxlMTE0ODY4Ij5TaGVldC43Mzg2PC90aXRsZT4mI3hhOwkJCTxwYXRoIGlkPSJwYXRoMTE0ODcwIiBpbmtzY2FwZTpjb25uZWN0b3ItY3VydmF0dXJlPSIwIiBzdHlsZT0iZmlsbDojOTM5NTk4OyIgZD0iTTAsNzMuNTd2MC4yOGgwLjg4bC0wLjI5LDAuMjloMC4zOGwwLjQyLTAuNDMgICAgIGwtMC40Mi0wLjQySDAuNTlsMC4yOSwwLjI4SDB6Ii8+JiN4YTsJCTwvZz4mI3hhOwkJPGcgaWQ9InNoYXBlNzM4Ny0yNSIgdHJhbnNmb3JtPSJ0cmFuc2xhdGUoMjEuOTM1NiwtNjMuMDYxMSkiPiYjeGE7CQkJPHRpdGxlIGlkPSJ0aXRsZTExNDg3MyI+U2hlZXQuNzM4NzwvdGl0bGU+JiN4YTsJCQk8cGF0aCBpZD0icGF0aDExNDg3NSIgaW5rc2NhcGU6Y29ubmVjdG9yLWN1cnZhdHVyZT0iMCIgc3R5bGU9ImZpbGw6IzU4NTk1QjsiIGQ9Ik0wLjU5LDcyLjg2YzAuMTYsMCwwLjMyLDAuMDcsMC40MiwwLjE4di0wLjI5ICAgICBsMC4xNiwwLjE2djAuNDNIMC43NWwtMC4xNi0wLjE2aDAuMjljLTAuMDctMC4wOC0wLjE4LTAuMTMtMC4yOS0wLjEzYy0wLjIxLDAtMC4zNywwLjE1LTAuNCwwLjM0SDAgICAgIEMwLjAzLDczLjA5LDAuMjgsNzIuODYsMC41OSw3Mi44NnogTTAuNTksNzMuODVjMC4yLDAsMC4zNy0wLjE2LDAuMzktMC4zNWgwLjE5Yy0wLjAzLDAuMy0wLjI4LDAuNTMtMC41OCwwLjUzICAgICBjLTAuMTcsMC0wLjMyLTAuMDctMC40My0wLjE4djAuMjlMMCw3My45OHYtMC40M2gwLjQzbDAuMTYsMC4xNmgtMC4zQzAuMzYsNzMuNzksMC40Nyw3My44NSwwLjU5LDczLjg1eiIvPiYjeGE7CQk8L2c+JiN4YTsJCTxnIGlkPSJzaGFwZTczODgtMjciIHRyYW5zZm9ybT0idHJhbnNsYXRlKDU5LjYyNDgsLTYyLjEyNTIpIj4mI3hhOwkJCTx0aXRsZSBpZD0idGl0bGUxMTQ4NzgiPlNoZWV0LjczODg8L3RpdGxlPiYjeGE7CQkJPHBhdGggaWQ9InBhdGgxMTQ4ODAiIGlua3NjYXBlOmNvbm5lY3Rvci1jdXJ2YXR1cmU9IjAiIHN0eWxlPSJmaWxsOiNBN0E5QUM7IiBkPSJNMC42NCw3MC44OGgxNy40NGMwLjM1LDAsMC42NCwwLjE3LDAuNjQsMC4zOCAgICAgdjIuNWMwLDAuMjEtMC4yOSwwLjM4LTAuNjQsMC4zOEgwLjY0QzAuMjksNzQuMTQsMCw3My45NywwLDczLjc2di0yLjVDMCw3MS4wNSwwLjI5LDcwLjg4LDAuNjQsNzAuODh6Ii8+JiN4YTsJCTwvZz4mI3hhOwkJPGcgaWQ9InNoYXBlNzM4OS0yOSIgdHJhbnNmb3JtPSJ0cmFuc2xhdGUoNTkuNjI0OCwtNjIuMjcyNSkiPiYjeGE7CQkJPHRpdGxlIGlkPSJ0aXRsZTExNDg4MyI+U2hlZXQuNzM4OTwvdGl0bGU+JiN4YTsJCQk8cGF0aCBpZD0icGF0aDExNDg4NSIgaW5rc2NhcGU6Y29ubmVjdG9yLWN1cnZhdHVyZT0iMCIgc3R5bGU9ImZpbGw6I0ZGRkZGRjsiIGQ9Ik0wLjY0LDcxLjAzaDE3LjMxYzAuMzUsMCwwLjY0LDAuMTYsMC42NCwwLjM2ICAgICB2Mi4zOWMwLDAuMi0wLjI5LDAuMzYtMC42NCwwLjM2SDAuNjRDMC4yOSw3NC4xNCwwLDczLjk4LDAsNzMuNzh2LTIuMzlDMCw3MS4xOSwwLjI5LDcxLjAzLDAuNjQsNzEuMDN6Ii8+JiN4YTsJCTwvZz4mI3hhOwkJPGcgaWQ9InNoYXBlNzM5MC0zMSIgdHJhbnNmb3JtPSJ0cmFuc2xhdGUoNzUuNjc0NywtNjMuMzc1NSkiPiYjeGE7CQkJPHRpdGxlIGlkPSJ0aXRsZTExNDg4OCI+U2hlZXQuNzM5MDwvdGl0bGU+JiN4YTsJCQk8Y2lyY2xlIGlkPSJlbGxpcHNlMTE0ODkwIiBzdHlsZT0iZmlsbDojQTdBOUFDOyIgY3g9IjAuNjIiIGN5PSI3My41MiIgcj0iMC42MiIvPiYjeGE7CQk8L2c+JiN4YTsJCTxnIGlkPSJzaGFwZTczOTEtMzMiIHRyYW5zZm9ybT0idHJhbnNsYXRlKDc1Ljc5NCwtNjMuNTA5KSI+JiN4YTsJCQk8dGl0bGUgaWQ9InRpdGxlMTE0ODkzIj5TaGVldC43MzkxPC90aXRsZT4mI3hhOwkJCTxjaXJjbGUgaWQ9ImVsbGlwc2UxMTQ4OTUiIHN0eWxlPSJmaWxsOiNGRkZGRkY7IiBjeD0iMC41IiBjeT0iNzMuNjQiIHI9IjAuNSIvPiYjeGE7CQk8L2c+JiN4YTsJCTxnIGlkPSJzaGFwZTczOTItMzUiIHRyYW5zZm9ybT0icm90YXRlKC00NC44NzA0LC0zNy41MTUxMjUsLTUwLjg4MDUyMykiPiYjeGE7CQkJPHRpdGxlIGlkPSJ0aXRsZTExNDg5OCI+U2hlZXQuNzM5MjwvdGl0bGU+JiN4YTsJCQkmI3hhOwkJCQk8cmVjdCBpZD0icmVjdDExNDkwMCIgeD0iMCIgeT0iNzMuMjIiIHRyYW5zZm9ybT0ibWF0cml4KC0xIDEuOTI1NTQzZS0wNiAtMS45MjU1NDNlLTA2IC0xIDAuMTY4NyAxNDcuMzU5KSIgc3R5bGU9ImZpbGw6I0E3QTlBQzsiIHdpZHRoPSIwLjE3IiBoZWlnaHQ9IjAuOTIiLz4mI3hhOwkJPC9nPiYjeGE7CQk8ZyBpZD0ic2hhcGU3MzkzLTM3IiB0cmFuc2Zvcm09InRyYW5zbGF0ZSgyNS41OTgsLTYyLjA0NzcpIj4mI3hhOwkJCTx0aXRsZSBpZD0idGl0bGUxMTQ5MDMiPlNoZWV0LjczOTM8L3RpdGxlPiYjeGE7CQkJPHBhdGggaWQ9InBhdGgxMTQ5MDUiIGlua3NjYXBlOmNvbm5lY3Rvci1jdXJ2YXR1cmU9IjAiIHN0eWxlPSJmaWxsOiM5OTk5OTk7IiBkPSJNMzIuNTQsNzAuODhIMTguMDhIMTUuMUgwLjY0ICAgICBDMC4yOSw3MC44OCwwLDcxLjA1LDAsNzEuMjZ2Mi41YzAsMC4yMSwwLjI5LDAuMzgsMC42NCwwLjM4SDE1LjFoMi45OGgxNC40NmMwLjM1LDAsMC42NC0wLjE3LDAuNjQtMC4zOHYtMi41ICAgICBDMzMuMTgsNzEuMDUsMzIuODksNzAuODgsMzIuNTQsNzAuODh6Ii8+JiN4YTsJCTwvZz4mI3hhOwkJPGcgaWQ9InNoYXBlNzM5NC0zOSIgdHJhbnNmb3JtPSJ0cmFuc2xhdGUoMjUuNTY0MywtNjIuMTk1MSkiPiYjeGE7CQkJPHRpdGxlIGlkPSJ0aXRsZTExNDkwOCI+U2hlZXQuNzM5NDwvdGl0bGU+JiN4YTsJCQk8cGF0aCBpZD0icGF0aDExNDkxMCIgaW5rc2NhcGU6Y29ubmVjdG9yLWN1cnZhdHVyZT0iMCIgc3R5bGU9ImZpbGw6I0ZGRkZGRjsiIGQ9Ik0zMi40NCw3MS4wM0gxNy45NWgtMi44MkgwLjY0ICAgICBDMC4yOSw3MS4wMywwLDcxLjE5LDAsNzEuMzl2Mi4zOWMwLDAuMiwwLjI5LDAuMzYsMC42NCwwLjM2aDE0LjQ5aDIuODJoMTQuNDljMC4zNSwwLDAuNjQtMC4xNiwwLjY0LTAuMzZ2LTIuMzkgICAgIEMzMy4wOCw3MS4xOSwzMi43OSw3MS4wMywzMi40NCw3MS4wM3oiLz4mI3hhOwkJPC9nPiYjeGE7CQk8ZyBpZD0ic2hhcGU3Mzk1LTQxIiB0cmFuc2Zvcm09InRyYW5zbGF0ZSgyNi4zNzc0LC02My4wODQzKSI+JiN4YTsJCQk8dGl0bGUgaWQ9InRpdGxlMTE0OTEzIj5TaGVldC43Mzk1PC90aXRsZT4mI3hhOwkJCTxwYXRoIGlkPSJwYXRoMTE0OTE1IiBpbmtzY2FwZTpjb25uZWN0b3ItY3VydmF0dXJlPSIwIiBzdHlsZT0iZmlsbDojNTg1OTVCOyIgZD0iTTAuNzYsNzQuMTFjMCwwLjAxLDAsMC4wMSwwLDAuMDEgICAgIGMwLDAuMDEtMC4wMSwwLjAxLTAuMDEsMC4wMWMtMC4wMSwwLTAuMDEsMC4wMS0wLjAyLDAuMDFzLTAuMDIsMC0wLjAzLDBzLTAuMDIsMC0wLjAzLDBjLTAuMDEtMC4wMS0wLjAxLTAuMDEtMC4wMi0wLjAxICAgICBjMCwwLTAuMDEsMC0wLjAxLTAuMDFjMCwwLDAsMCwwLTAuMDF2LTAuNTZjMC0wLjA1LTAuMDEtMC4xLTAuMDEtMC4xNGMtMC4wMS0wLjAzLTAuMDMtMC4wNy0wLjA1LTAuMDkgICAgIGMtMC4wMS0wLjAzLTAuMDQtMC4wNS0wLjA2LTAuMDZjLTAuMDMtMC4wMi0wLjA3LTAuMDItMC4xLTAuMDJjLTAuMDUsMC0wLjEsMC4wMS0wLjE1LDAuMDVjLTAuMDQsMC4wMy0wLjA5LDAuMDgtMC4xNSwwLjE1djAuNjcgICAgIGMwLDAuMDEsMCwwLjAxLDAsMC4wMWMwLDAuMDEsMCwwLjAxLTAuMDEsMC4wMWMwLDAtMC4wMSwwLTAuMDIsMC4wMWMtMC4wMSwwLTAuMDIsMC0wLjAzLDBjLTAuMDEsMC0wLjAyLDAtMC4wMywwICAgICBjLTAuMDEtMC4wMS0wLjAxLTAuMDEtMC4wMi0wLjAxYzAsMC0wLjAxLDAtMC4wMS0wLjAxYzAsMCwwLDAsMC0wLjAxdi0xLjRWNzIuN2wwLjAxLTAuMDFjMC4wMSwwLDAuMDEsMCwwLjAyLDAgICAgIGMwLjAxLTAuMDEsMC4wMi0wLjAxLDAuMDMtMC4wMXMwLjAyLDAsMC4wMywwLjAxYzAuMDEsMCwwLjAyLDAsMC4wMiwwYzAuMDEsMCwwLjAxLDAuMDEsMC4wMSwwLjAxdjAuMDF2MC41OSAgICAgYzAuMDUtMC4wNiwwLjExLTAuMSwwLjE2LTAuMTNjMC4wNS0wLjAyLDAuMS0wLjA0LDAuMTUtMC4wNGMwLjA2LDAsMC4xMSwwLjAxLDAuMTYsMC4wM2MwLjA0LDAuMDIsMC4wNywwLjA1LDAuMSwwLjA5ICAgICBjMC4wMiwwLjAzLDAuMDQsMC4wNywwLjA1LDAuMTJjMC4wMiwwLjA1LDAuMDIsMC4xMSwwLjAyLDAuMTdWNzQuMTF6Ii8+JiN4YTsJCTwvZz4mI3hhOwkJPGcgaWQ9InNoYXBlNzM5Ni00MyIgdHJhbnNmb3JtPSJ0cmFuc2xhdGUoMjcuMzk5NCwtNjMuMDc0MykiPiYjeGE7CQkJPHRpdGxlIGlkPSJ0aXRsZTExNDkxOCI+U2hlZXQuNzM5NjwvdGl0bGU+JiN4YTsJCQk8cGF0aCBpZD0icGF0aDExNDkyMCIgaW5rc2NhcGU6Y29ubmVjdG9yLWN1cnZhdHVyZT0iMCIgc3R5bGU9ImZpbGw6IzU4NTk1QjsiIGQ9Ik0xLjIxLDc0LjA0YzAsMC4wMiwwLDAuMDMsMCwwLjA0ICAgICBDMS4yLDc0LjA5LDEuMiw3NC4xLDEuMTksNzQuMWMwLDAuMDEtMC4wMSwwLjAxLTAuMDIsMC4wMmMtMC4wMSwwLTAuMDIsMC0wLjAzLDAuMDFjLTAuMDIsMC0wLjAzLDAtMC4wNCwwLjAxICAgICBjLTAuMDIsMC0wLjAzLDAtMC4wNSwwYy0wLjA0LDAtMC4wOC0wLjAxLTAuMTItMC4wMmMtMC4wMy0wLjAxLTAuMDYtMC4wMy0wLjA4LTAuMDZDMC44Myw3NC4wNCwwLjgyLDc0LDAuODEsNzMuOTcgICAgIEMwLjgsNzMuOTMsMC44LDczLjg4LDAuOCw3My44M3YtMC41OUgwLjI5djAuNTdjMCwwLjA3LDAuMDEsMC4xMywwLjA0LDAuMTdjMC4wMiwwLjAzLDAuMDUsMC4wNSwwLjExLDAuMDVjMC4wMSwwLDAuMDMsMCwwLjA0LDAgICAgIGMwLjAyLTAuMDEsMC4wMy0wLjAxLDAuMDQtMC4wMWMwLjAxLTAuMDEsMC4wMi0wLjAxLDAuMDItMC4wMmMwLjAxLDAsMC4wMiwwLDAuMDIsMGMwLjAxLDAsMC4wMSwwLDAuMDEsMCAgICAgYzAuMDEsMCwwLjAxLDAsMC4wMSwwLjAxdjAuMDFjMCwwLjAxLDAuMDEsMC4wMiwwLjAxLDAuMDN2MC4wMWMtMC4wMSwwLjAxLTAuMDEsMC4wMS0wLjAxLDAuMDJ2MC4wMWMwLDAuMDEtMC4wMSwwLjAxLTAuMDEsMC4wMSAgICAgYy0wLjAxLDAuMDEtMC4wMiwwLjAxLTAuMDIsMC4wMmMtMC4wMSwwLTAuMDMsMC0wLjA0LDAuMDFjLTAuMDEsMC0wLjAyLDAtMC4wNCwwLjAxYy0wLjAxLDAtMC4wMywwLTAuMDQsMCAgICAgYy0wLjA1LDAtMC4wOS0wLjAxLTAuMTItMC4wMmMtMC4wMy0wLjAxLTAuMDYtMC4wMy0wLjA4LTAuMDZjLTAuMDItMC4wMi0wLjA0LTAuMDUtMC4wNC0wLjA5Yy0wLjAxLTAuMDQtMC4wMi0wLjA5LTAuMDItMC4xNCAgICAgdi0wLjU5SDAuMDNjLTAuMDEsMC0wLjAyLDAtMC4wMi0wLjAxQzAsNzMuMjIsMCw3My4yMSwwLDczLjE5YzAtMC4wMSwwLTAuMDEsMC0wLjAyYzAtMC4wMSwwLjAxLTAuMDEsMC4wMS0wLjAyICAgICBjMCwwLDAtMC4wMSwwLjAxLTAuMDFoMC4wMWgwLjE0di0wLjIzYzAtMC4wMSwwLTAuMDEsMC0wLjAxYzAuMDEtMC4wMSwwLjAxLTAuMDEsMC4wMS0wLjAxYzAuMDEsMCwwLjAxLTAuMDEsMC4wMi0wLjAxICAgICBjMC4wMSwwLDAuMDIsMCwwLjAzLDBzMC4wMiwwLDAuMDMsMGMwLjAxLDAsMC4wMiwwLjAxLDAuMDIsMC4wMWMwLjAxLDAsMC4wMSwwLDAuMDEsMC4wMWMwLDAsMCwwLDAsMC4wMXYwLjIzSDAuOHYtMC4yNyAgICAgYzAtMC4wMSwwLTAuMDEsMC0wLjAyYzAsMCwwLDAsMC4wMSwwYzAtMC4wMSwwLjAxLTAuMDEsMC4wMi0wLjAxYzAsMCwwLjAxLDAsMC4wMywwYzAuMDEsMCwwLjAyLDAsMC4wMywwICAgICBjMCwwLDAuMDEsMC4wMSwwLjAyLDAuMDFjMCwwLDAsMCwwLjAxLDBjMCwwLjAxLDAsMC4wMSwwLDAuMDJ2MC4yN2gwLjI2aDAuMDFsMC4wMSwwLjAxYzAsMC4wMSwwLDAuMDEsMC4wMSwwLjAyICAgICBjMCwwLjAxLDAsMC4wMSwwLDAuMDJjMCwwLjAyLDAsMC4wMy0wLjAxLDAuMDRzLTAuMDEsMC4wMS0wLjAyLDAuMDFIMC45MnYwLjU3YzAsMC4wNywwLjAxLDAuMTMsMC4wMywwLjE3ICAgICBjMC4wMiwwLjAzLDAuMDYsMC4wNSwwLjExLDAuMDVjMC4wMiwwLDAuMDMsMCwwLjA1LDBjMC4wMS0wLjAxLDAuMDItMC4wMSwwLjAzLTAuMDFjMC4wMS0wLjAxLDAuMDItMC4wMSwwLjAzLTAuMDIgICAgIGMwLjAxLDAsMC4wMSwwLDAuMDIsMGMwLDAsMCwwLDAuMDEsMGMwLDAsMCwwLDAsMC4wMWwwLjAxLDAuMDFDMS4yMSw3NC4wMywxLjIxLDc0LjA0LDEuMjEsNzQuMDR6Ii8+JiN4YTsJCTwvZz4mI3hhOwkJPGcgaWQ9InNoYXBlNzM5Ny00NSIgdHJhbnNmb3JtPSJ0cmFuc2xhdGUoMjguOTI1NiwtNjIuNzExNykiPiYjeGE7CQkJPHRpdGxlIGlkPSJ0aXRsZTExNDkyMyI+U2hlZXQuNzM5NzwvdGl0bGU+JiN4YTsJCQk8cGF0aCBpZD0icGF0aDExNDkyNSIgaW5rc2NhcGU6Y29ubmVjdG9yLWN1cnZhdHVyZT0iMCIgc3R5bGU9ImZpbGw6IzU4NTk1QjsiIGQ9Ik0wLjgyLDczLjI1YzAsMC4wOC0wLjAxLDAuMTYtMC4wMywwLjIyICAgICBjLTAuMDEsMC4wNy0wLjA0LDAuMTItMC4wNywwLjE3Yy0wLjA0LDAuMDQtMC4wOCwwLjA4LTAuMTMsMC4xcy0wLjExLDAuMDQtMC4xNywwLjA0Yy0wLjAzLDAtMC4wNi0wLjAxLTAuMDgtMC4wMSAgICAgYy0wLjAzLTAuMDEtMC4wNS0wLjAyLTAuMDctMC4wM2MtMC4wMy0wLjAxLTAuMDUtMC4wMy0wLjA3LTAuMDVjLTAuMDMtMC4wMS0wLjA1LTAuMDQtMC4wOC0wLjA2djAuNDhjMCwwLjAxLDAsMC4wMSwwLDAuMDEgICAgIGMwLDAuMDEsMCwwLjAxLTAuMDEsMC4wMWMwLDAtMC4wMSwwLjAxLTAuMDIsMC4wMXMtMC4wMiwwLTAuMDMsMHMtMC4wMiwwLTAuMDMsMHMtMC4wMS0wLjAxLTAuMDItMC4wMWMwLDAtMC4wMSwwLTAuMDEtMC4wMSAgICAgYzAsMCwwLDAsMC0wLjAxVjcyLjhjMC0wLjAxLDAtMC4wMSwwLTAuMDFjMC0wLjAxLDAuMDEtMC4wMSwwLjAxLTAuMDFjMC4wMSwwLDAuMDEtMC4wMSwwLjAyLTAuMDFzMC4wMiwwLDAuMDMsMHMwLjAyLDAsMC4wMiwwICAgICBjMC4wMSwwLDAuMDIsMC4wMSwwLjAyLDAuMDFzMC4wMSwwLDAuMDEsMC4wMWMwLDAsMCwwLDAsMC4wMXYwLjEzYzAuMDMtMC4wMywwLjA2LTAuMDUsMC4wOS0wLjA3YzAuMDItMC4wMiwwLjA1LTAuMDQsMC4wOC0wLjA2ICAgICBjMC4wMi0wLjAxLDAuMDUtMC4wMiwwLjA4LTAuMDNjMC4wMi0wLjAxLDAuMDUtMC4wMSwwLjA4LTAuMDFjMC4wNywwLDAuMTMsMC4wMSwwLjE4LDAuMDRzMC4wOCwwLjA2LDAuMTEsMC4xMSAgICAgQzAuNzYsNzIuOTUsMC43OSw3MywwLjgsNzMuMDZDMC44MSw3My4xMiwwLjgyLDczLjE5LDAuODIsNzMuMjV6IE0wLjY5LDczLjI3YzAtMC4wNSwwLTAuMS0wLjAxLTAuMTUgICAgIGMtMC4wMS0wLjA1LTAuMDItMC4wOS0wLjA0LTAuMTNjLTAuMDItMC4wNC0wLjA1LTAuMDctMC4wOC0wLjA5Yy0wLjA0LTAuMDItMC4wOC0wLjAzLTAuMTMtMC4wM2MtMC4wMiwwLTAuMDUsMC0wLjA3LDAuMDEgICAgIGMtMC4wMiwwLTAuMDUsMC4wMS0wLjA3LDAuMDNjLTAuMDMsMC4wMi0wLjA1LDAuMDQtMC4wOCwwLjA2Yy0wLjAzLDAuMDMtMC4wNiwwLjA2LTAuMDksMC4xdjAuNDFjMC4wNiwwLjA2LDAuMTEsMC4xMSwwLjE1LDAuMTQgICAgIGMwLjA1LDAuMDMsMC4xLDAuMDUsMC4xNSwwLjA1czAuMDktMC4wMSwwLjEyLTAuMDNjMC4wNC0wLjAzLDAuMDctMC4wNiwwLjA5LTAuMWMwLjAyLTAuMDMsMC4wNC0wLjA4LDAuMDUtMC4xMiAgICAgQzAuNjksNzMuMzcsMC42OSw3My4zMiwwLjY5LDczLjI3eiIvPiYjeGE7CQk8L2c+JiN4YTsJCTxnIGlkPSJzaGFwZTczOTgtNDciIHRyYW5zZm9ybT0idHJhbnNsYXRlKDMwLjEzNzIsLTYzLjA4MzIpIj4mI3hhOwkJCTx0aXRsZSBpZD0idGl0bGUxMTQ5MjgiPlNoZWV0LjczOTg8L3RpdGxlPiYjeGE7CQkJPHBhdGggaWQ9InBhdGgxMTQ5MzAiIGlua3NjYXBlOmNvbm5lY3Rvci1jdXJ2YXR1cmU9IjAiIHN0eWxlPSJmaWxsOiM1ODU5NUI7IiBkPSJNMC4xOCw3My4yOWMwLDAuMDIsMCwwLjA0LTAuMDEsMC4wNSAgICAgYzAsMC4wMSwwLDAuMDItMC4wMSwwLjAzcy0wLjAyLDAuMDItMC4wMywwLjAycy0wLjAyLDAtMC4wNCwwcy0wLjAzLDAtMC4wNSwwYy0wLjAxLTAuMDEtMC4wMi0wLjAxLTAuMDItMC4wMiAgICAgQzAuMDEsNzMuMzYsMC4wMSw3My4zNSwwLDczLjM0YzAtMC4wMSwwLTAuMDMsMC0wLjA1YzAtMC4wMiwwLTAuMDMsMC0wLjA1YzAuMDEtMC4wMSwwLjAxLTAuMDIsMC4wMi0wLjAzICAgICBjMCwwLDAuMDEtMC4wMSwwLjAyLTAuMDFjMC4wMi0wLjAxLDAuMDMtMC4wMSwwLjA1LTAuMDFzMC4wMywwLDAuMDQsMC4wMWMwLjAxLDAsMC4wMiwwLjAxLDAuMDMsMC4wMSAgICAgYzAuMDEsMC4wMSwwLjAxLDAuMDIsMC4wMSwwLjAzQzAuMTgsNzMuMjYsMC4xOCw3My4yNywwLjE4LDczLjI5eiBNMC4xOCw3NC4wNGMwLDAuMDIsMCwwLjAzLTAuMDEsMC4wNWMwLDAuMDEsMCwwLjAyLTAuMDEsMC4wMyAgICAgYy0wLjAxLDAtMC4wMiwwLjAxLTAuMDMsMC4wMWMtMC4wMSwwLjAxLTAuMDIsMC4wMS0wLjA0LDAuMDFzLTAuMDMsMC0wLjA1LTAuMDFjLTAuMDEsMC0wLjAyLTAuMDEtMC4wMi0wLjAxICAgICBDMC4wMSw3NC4xMSwwLjAxLDc0LjEsMCw3NC4wOWMwLTAuMDIsMC0wLjAzLDAtMC4wNWMwLTAuMDIsMC0wLjA0LDAtMC4wNWMwLjAxLTAuMDEsMC4wMS0wLjAyLDAuMDItMC4wMyAgICAgYzAtMC4wMSwwLjAxLTAuMDEsMC4wMi0wLjAyYzAuMDIsMCwwLjAzLDAsMC4wNSwwczAuMDMsMCwwLjA0LDBjMC4wMSwwLjAxLDAuMDIsMC4wMSwwLjAzLDAuMDJjMC4wMSwwLjAxLDAuMDEsMC4wMiwwLjAxLDAuMDMgICAgIEMwLjE4LDc0LDAuMTgsNzQuMDIsMC4xOCw3NC4wNHoiLz4mI3hhOwkJPC9nPiYjeGE7CQk8ZyBpZD0ic2hhcGU3Mzk5LTQ5IiB0cmFuc2Zvcm09InRyYW5zbGF0ZSgzMC41NTgsLTYyLjgxMDkpIj4mI3hhOwkJCTx0aXRsZSBpZD0idGl0bGUxMTQ5MzMiPlNoZWV0LjczOTk8L3RpdGxlPiYjeGE7CQkJPHBhdGggaWQ9InBhdGgxMTQ5MzUiIGlua3NjYXBlOmNvbm5lY3Rvci1jdXJ2YXR1cmU9IjAiIHN0eWxlPSJmaWxsOiM1ODU5NUI7IiBkPSJNMC4xMiw3NC4xYzAsMC4wMSwwLDAuMDEsMCwwLjAyICAgICBjLTAuMDEsMC0wLjAxLDAuMDEtMC4wMiwwLjAxYzAsMC0wLjAxLDAuMDEtMC4wMiwwLjAxYzAsMC0wLjAxLDAtMC4wMiwwcy0wLjAyLDAtMC4wMywwYy0wLjAxLTAuMDEtMC4wMi0wLjAxLTAuMDItMC4wMSAgICAgQzAsNzQuMTIsMCw3NC4xMiwwLDc0LjExYzAsMCwwLTAuMDEsMC0wLjAybDAuNjQtMS43MWMwLTAuMDEsMC0wLjAyLDAuMDEtMC4wMmwwLjAxLTAuMDFjMC4wMSwwLDAuMDEtMC4wMSwwLjAyLTAuMDEgICAgIHMwLjAyLDAsMC4wMywwczAuMDIsMCwwLjAyLDBjMC4wMSwwLjAxLDAuMDIsMC4wMSwwLjAyLDAuMDFjMC4wMSwwLjAxLDAuMDEsMC4wMSwwLjAxLDAuMDJjMCwwLDAsMC4wMSwwLDAuMDJMMC4xMiw3NC4xeiIvPiYjeGE7CQk8L2c+JiN4YTsJCTxnIGlkPSJzaGFwZTc0MDAtNTEiIHRyYW5zZm9ybT0idHJhbnNsYXRlKDMxLjM5ODYsLTYyLjgxMDkpIj4mI3hhOwkJCTx0aXRsZSBpZD0idGl0bGUxMTQ5MzgiPlNoZWV0Ljc0MDA8L3RpdGxlPiYjeGE7CQkJPHBhdGggaWQ9InBhdGgxMTQ5NDAiIGlua3NjYXBlOmNvbm5lY3Rvci1jdXJ2YXR1cmU9IjAiIHN0eWxlPSJmaWxsOiM1ODU5NUI7IiBkPSJNMC4xMyw3NC4xYy0wLjAxLDAuMDEtMC4wMSwwLjAxLTAuMDEsMC4wMiAgICAgYy0wLjAxLDAtMC4wMSwwLjAxLTAuMDIsMC4wMWMwLDAtMC4wMSwwLjAxLTAuMDIsMC4wMWMwLDAtMC4wMSwwLTAuMDIsMHMtMC4wMiwwLTAuMDMsMGMtMC4wMS0wLjAxLTAuMDItMC4wMS0wLjAyLTAuMDEgICAgIGMwLTAuMDEtMC4wMS0wLjAxLTAuMDEtMC4wMmMwLDAsMC0wLjAxLDAtMC4wMmwwLjY0LTEuNzFjMC0wLjAxLDAtMC4wMiwwLjAxLTAuMDJsMC4wMS0wLjAxYzAuMDEsMCwwLjAxLTAuMDEsMC4wMi0wLjAxICAgICBzMC4wMiwwLDAuMDMsMHMwLjAyLDAsMC4wMiwwYzAuMDEsMC4wMSwwLjAyLDAuMDEsMC4wMiwwLjAxYzAuMDEsMC4wMSwwLjAxLDAuMDEsMC4wMSwwLjAyYzAsMCwwLDAuMDEsMCwwLjAyTDAuMTMsNzQuMXoiLz4mI3hhOwkJPC9nPiYjeGE7CQk8ZyBpZD0ic2hhcGU3NDAxLTUzIiB0cmFuc2Zvcm09InRyYW5zbGF0ZSgxNy4wMzMxLC0yOS40MjkpIj4mI3hhOwkJCTx0aXRsZSBpZD0idGl0bGUxMTQ5NDMiPlNoZWV0Ljc0MDE8L3RpdGxlPiYjeGE7CQkJPHBhdGggaWQ9InBhdGgxMTQ5NDUiIGlua3NjYXBlOmNvbm5lY3Rvci1jdXJ2YXR1cmU9IjAiIHN0eWxlPSJmaWxsOiNFNkU3RTg7IiBkPSJNMCw0My4zNmg2MC4wOHYzMC43OEgwVjQzLjM2eiIvPiYjeGE7CQk8L2c+JiN4YTsJCTxnIGlkPSJzaGFwZTc0MDItNTUiIHRyYW5zZm9ybT0idHJhbnNsYXRlKDYxLjM0MjMsLTQ5LjE1MzYpIj4mI3hhOwkJCTx0aXRsZSBpZD0idGl0bGUxMTQ5NDgiPlNoZWV0Ljc0MDI8L3RpdGxlPiYjeGE7CQkJPHBhdGggaWQ9InBhdGgxMTQ5NTAiIGlua3NjYXBlOmNvbm5lY3Rvci1jdXJ2YXR1cmU9IjAiIHN0eWxlPSJmaWxsOiNGRkRDNjY7IiBkPSJNMCw3NC4xNGgxMy42NHYtNy43OUgwVjc0LjE0eiIvPiYjeGE7CQk8L2c+JiN4YTsJCTxnIGlkPSJzaGFwZTc0MDMtNTciIHRyYW5zZm9ybT0idHJhbnNsYXRlKDYxLjM0MjMsLTMwLjgyODEpIj4mI3hhOwkJCTx0aXRsZSBpZD0idGl0bGUxMTQ5NTMiPlNoZWV0Ljc0MDM8L3RpdGxlPiYjeGE7CQkJPHBhdGggaWQ9InBhdGgxMTQ5NTUiIGlua3NjYXBlOmNvbm5lY3Rvci1jdXJ2YXR1cmU9IjAiIHN0eWxlPSJmaWxsOiNGNTgyMjA7IiBkPSJNMCw3NC4xNGgxMy42NFY2NUgwVjc0LjE0eiIvPiYjeGE7CQk8L2c+JiN4YTsJCTxnIGlkPSJzaGFwZTc0MDQtNTkiIHRyYW5zZm9ybT0idHJhbnNsYXRlKDE5LjM5OTQsLTU2LjAxMTkpIj4mI3hhOwkJCTx0aXRsZSBpZD0idGl0bGUxMTQ5NTgiPlNoZWV0Ljc0MDQ8L3RpdGxlPiYjeGE7CQkJPHBhdGggaWQ9InBhdGgxMTQ5NjAiIGlua3NjYXBlOmNvbm5lY3Rvci1jdXJ2YXR1cmU9IjAiIHN0eWxlPSJmaWxsOiM4MDgyODU7IiBkPSJNMCw3NC4xNGgxMy42NHYtMC45M0gwVjc0LjE0eiIvPiYjeGE7CQk8L2c+JiN4YTsJCTxnIGlkPSJzaGFwZTc0MDUtNjEiIHRyYW5zZm9ybT0idHJhbnNsYXRlKDE5LjM5OTQsLTU0LjU5NTYpIj4mI3hhOwkJCTx0aXRsZSBpZD0idGl0bGUxMTQ5NjMiPlNoZWV0Ljc0MDU8L3RpdGxlPiYjeGE7CQkJPHBhdGggaWQ9InBhdGgxMTQ5NjUiIGlua3NjYXBlOmNvbm5lY3Rvci1jdXJ2YXR1cmU9IjAiIHN0eWxlPSJmaWxsOiNCQ0JEQzA7IiBkPSJNMCw3NC4xNGgzNy43MnYtMC45M0gwVjc0LjE0eiIvPiYjeGE7CQk8L2c+JiN4YTsJCTxnIGlkPSJzaGFwZTc0MDYtNjMiIHRyYW5zZm9ybT0idHJhbnNsYXRlKDE5LjM5OTQsLTUzLjE3OTMpIj4mI3hhOwkJCTx0aXRsZSBpZD0idGl0bGUxMTQ5NjgiPlNoZWV0Ljc0MDY8L3RpdGxlPiYjeGE7CQkJPHBhdGggaWQ9InBhdGgxMTQ5NzAiIGlua3NjYXBlOmNvbm5lY3Rvci1jdXJ2YXR1cmU9IjAiIHN0eWxlPSJmaWxsOiNCQ0JEQzA7IiBkPSJNMCw3NC4xNGgzNy43MnYtMC45M0gwVjc0LjE0eiIvPiYjeGE7CQk8L2c+JiN4YTsJCTxnIGlkPSJzaGFwZTc0MDctNjUiIHRyYW5zZm9ybT0idHJhbnNsYXRlKDE5LjM5OTQsLTUxLjc2MjcpIj4mI3hhOwkJCTx0aXRsZSBpZD0idGl0bGUxMTQ5NzMiPlNoZWV0Ljc0MDc8L3RpdGxlPiYjeGE7CQkJPHBhdGggaWQ9InBhdGgxMTQ5NzUiIGlua3NjYXBlOmNvbm5lY3Rvci1jdXJ2YXR1cmU9IjAiIHN0eWxlPSJmaWxsOiNCQ0JEQzA7IiBkPSJNMCw3NC4xNGgzNy43MnYtMC45M0gwVjc0LjE0eiIvPiYjeGE7CQk8L2c+JiN4YTsJCTxnIGlkPSJzaGFwZTc0MDgtNjciIHRyYW5zZm9ybT0idHJhbnNsYXRlKDE5LjM5OTQsLTUwLjM0NjIpIj4mI3hhOwkJCTx0aXRsZSBpZD0idGl0bGUxMTQ5NzgiPlNoZWV0Ljc0MDg8L3RpdGxlPiYjeGE7CQkJPHBhdGggaWQ9InBhdGgxMTQ5ODAiIGlua3NjYXBlOmNvbm5lY3Rvci1jdXJ2YXR1cmU9IjAiIHN0eWxlPSJmaWxsOiNCQ0JEQzA7IiBkPSJNMCw3NC4xNGgyMS4xNnYtMC45M0gwVjc0LjE0eiIvPiYjeGE7CQk8L2c+JiN4YTsJCTxnIGlkPSJzaGFwZTc0MDktNjkiIHRyYW5zZm9ybT0idHJhbnNsYXRlKDE5LjM5OTQsLTQ4LjA4NDUpIj4mI3hhOwkJCTx0aXRsZSBpZD0idGl0bGUxMTQ5ODMiPlNoZWV0Ljc0MDk8L3RpdGxlPiYjeGE7CQkJPHBhdGggaWQ9InBhdGgxMTQ5ODUiIGlua3NjYXBlOmNvbm5lY3Rvci1jdXJ2YXR1cmU9IjAiIHN0eWxlPSJmaWxsOiM4MDgyODU7IiBkPSJNMCw3NC4xNGg3LjY1di0wLjkzSDBWNzQuMTR6Ii8+JiN4YTsJCTwvZz4mI3hhOwkJPGcgaWQ9InNoYXBlNzQxMC03MSIgdHJhbnNmb3JtPSJ0cmFuc2xhdGUoMTkuMzk5NCwtNDYuNjY4NCkiPiYjeGE7CQkJPHRpdGxlIGlkPSJ0aXRsZTExNDk4OCI+U2hlZXQuNzQxMDwvdGl0bGU+JiN4YTsJCQk8cGF0aCBpZD0icGF0aDExNDk5MCIgaW5rc2NhcGU6Y29ubmVjdG9yLWN1cnZhdHVyZT0iMCIgc3R5bGU9ImZpbGw6I0JDQkRDMDsiIGQ9Ik0wLDc0LjE0aDIxLjE2di0wLjkzSDBWNzQuMTR6Ii8+JiN4YTsJCTwvZz4mI3hhOwkJPGcgaWQ9InNoYXBlNzQxMS03MyIgdHJhbnNmb3JtPSJ0cmFuc2xhdGUoMTkuMzk5NCwtNDUuMjUxNikiPiYjeGE7CQkJPHRpdGxlIGlkPSJ0aXRsZTExNDk5MyI+U2hlZXQuNzQxMTwvdGl0bGU+JiN4YTsJCQk8cGF0aCBpZD0icGF0aDExNDk5NSIgaW5rc2NhcGU6Y29ubmVjdG9yLWN1cnZhdHVyZT0iMCIgc3R5bGU9ImZpbGw6I0JDQkRDMDsiIGQ9Ik0wLDc0LjE0aDIxLjE2di0wLjkzSDBWNzQuMTR6Ii8+JiN4YTsJCTwvZz4mI3hhOwkJPGcgaWQ9InNoYXBlNzQxMi03NSIgdHJhbnNmb3JtPSJ0cmFuc2xhdGUoMTkuMzk5NCwtNDMuODM1MykiPiYjeGE7CQkJPHRpdGxlIGlkPSJ0aXRsZTExNDk5OCI+U2hlZXQuNzQxMjwvdGl0bGU+JiN4YTsJCQk8cGF0aCBpZD0icGF0aDExNTAwMCIgaW5rc2NhcGU6Y29ubmVjdG9yLWN1cnZhdHVyZT0iMCIgc3R5bGU9ImZpbGw6I0JDQkRDMDsiIGQ9Ik0wLDc0LjE0aDIxLjE2di0wLjkzSDBWNzQuMTR6Ii8+JiN4YTsJCTwvZz4mI3hhOwkJPGcgaWQ9InNoYXBlNzQxMy03NyIgdHJhbnNmb3JtPSJ0cmFuc2xhdGUoMTkuMzk5NCwtNDIuNDE5MikiPiYjeGE7CQkJPHRpdGxlIGlkPSJ0aXRsZTExNTAwMyI+U2hlZXQuNzQxMzwvdGl0bGU+JiN4YTsJCQk8cGF0aCBpZD0icGF0aDExNTAwNSIgaW5rc2NhcGU6Y29ubmVjdG9yLWN1cnZhdHVyZT0iMCIgc3R5bGU9ImZpbGw6I0JDQkRDMDsiIGQ9Ik0wLDc0LjE0aDExLjg3di0wLjkzSDBWNzQuMTR6Ii8+JiN4YTsJCTwvZz4mI3hhOwkJPGcgaWQ9InNoYXBlNzQxNC03OSIgdHJhbnNmb3JtPSJ0cmFuc2xhdGUoMTkuMzk5NCwtNDAuMTU3MSkiPiYjeGE7CQkJPHRpdGxlIGlkPSJ0aXRsZTExNTAwOCI+U2hlZXQuNzQxNDwvdGl0bGU+JiN4YTsJCQk8cGF0aCBpZD0icGF0aDExNTAxMCIgaW5rc2NhcGU6Y29ubmVjdG9yLWN1cnZhdHVyZT0iMCIgc3R5bGU9ImZpbGw6IzgwODI4NTsiIGQ9Ik0wLDc0LjE0aDcuNjV2LTAuOTNIMFY3NC4xNHoiLz4mI3hhOwkJPC9nPiYjeGE7CQk8ZyBpZD0ic2hhcGU3NDE1LTgxIiB0cmFuc2Zvcm09InRyYW5zbGF0ZSgxOS4zOTk0LC0zOC43NDEyKSI+JiN4YTsJCQk8dGl0bGUgaWQ9InRpdGxlMTE1MDEzIj5TaGVldC43NDE1PC90aXRsZT4mI3hhOwkJCTxwYXRoIGlkPSJwYXRoMTE1MDE1IiBpbmtzY2FwZTpjb25uZWN0b3ItY3VydmF0dXJlPSIwIiBzdHlsZT0iZmlsbDojQkNCREMwOyIgZD0iTTAsNzQuMTRoMjEuMTZ2LTAuOTNIMFY3NC4xNHoiLz4mI3hhOwkJPC9nPiYjeGE7CQk8ZyBpZD0ic2hhcGU3NDE2LTgzIiB0cmFuc2Zvcm09InRyYW5zbGF0ZSgxOS4zOTk0LC0zNy4zMjQ1KSI+JiN4YTsJCQk8dGl0bGUgaWQ9InRpdGxlMTE1MDE4Ij5TaGVldC43NDE2PC90aXRsZT4mI3hhOwkJCTxwYXRoIGlkPSJwYXRoMTE1MDIwIiBpbmtzY2FwZTpjb25uZWN0b3ItY3VydmF0dXJlPSIwIiBzdHlsZT0iZmlsbDojQkNCREMwOyIgZD0iTTAsNzQuMTRoMjEuMTZ2LTAuOTNIMFY3NC4xNHoiLz4mI3hhOwkJPC9nPiYjeGE7CQk8ZyBpZD0ic2hhcGU3NDE3LTg1IiB0cmFuc2Zvcm09InRyYW5zbGF0ZSgxOS4zOTk0LC0zNS45MDgyKSI+JiN4YTsJCQk8dGl0bGUgaWQ9InRpdGxlMTE1MDIzIj5TaGVldC43NDE3PC90aXRsZT4mI3hhOwkJCTxwYXRoIGlkPSJwYXRoMTE1MDI1IiBpbmtzY2FwZTpjb25uZWN0b3ItY3VydmF0dXJlPSIwIiBzdHlsZT0iZmlsbDojQkNCREMwOyIgZD0iTTAsNzQuMTRoMjEuMTZ2LTAuOTNIMFY3NC4xNHoiLz4mI3hhOwkJPC9nPiYjeGE7CQk8ZyBpZD0ic2hhcGU3NDE4LTg3IiB0cmFuc2Zvcm09InRyYW5zbGF0ZSgxOS4zOTk0LC0zNC40OTE4KSI+JiN4YTsJCQk8dGl0bGUgaWQ9InRpdGxlMTE1MDI4Ij5TaGVldC43NDE4PC90aXRsZT4mI3hhOwkJCTxwYXRoIGlkPSJwYXRoMTE1MDMwIiBpbmtzY2FwZTpjb25uZWN0b3ItY3VydmF0dXJlPSIwIiBzdHlsZT0iZmlsbDojQkNCREMwOyIgZD0iTTAsNzQuMTRoMTEuODd2LTAuOTNIMFY3NC4xNHoiLz4mI3hhOwkJPC9nPiYjeGE7CQk8ZyBpZD0ic2hhcGU3NDE5LTg5IiB0cmFuc2Zvcm09InRyYW5zbGF0ZSg2MS4zNDIzLC00MS4zNjM0KSI+JiN4YTsJCQk8dGl0bGUgaWQ9InRpdGxlMTE1MDMzIj5TaGVldC43NDE5PC90aXRsZT4mI3hhOwkJCTxwYXRoIGlkPSJwYXRoMTE1MDM1IiBpbmtzY2FwZTpjb25uZWN0b3ItY3VydmF0dXJlPSIwIiBzdHlsZT0iZmlsbDojQzZERDc5OyIgZD0iTTAsNzQuMTRoMTMuNjR2LTYuMjZIMFY3NC4xNHoiLz4mI3hhOwkJPC9nPiYjeGE7CQk8ZyBpZD0ic2hhcGU3NDIwLTkxIiB0cmFuc2Zvcm09InRyYW5zbGF0ZSg0Mi42NzksLTMzLjYyNjMpIj4mI3hhOwkJCTx0aXRsZSBpZD0idGl0bGUxMTUwMzgiPlNoZWV0Ljc0MjA8L3RpdGxlPiYjeGE7CQkJPHBhdGggaWQ9InBhdGgxMTUwNDAiIGlua3NjYXBlOmNvbm5lY3Rvci1jdXJ2YXR1cmU9IjAiIHN0eWxlPSJmaWxsOiNBNkNFMzk7IiBkPSJNMCw2NmgyLjI4djguMTRIMFY2NnoiLz4mI3hhOwkJPC9nPiYjeGE7CQk8ZyBpZD0ic2hhcGU3NDIxLTkzIiB0cmFuc2Zvcm09InRyYW5zbGF0ZSg0Mi42NzksLTMzLjYyNjMpIj4mI3hhOwkJCTx0aXRsZSBpZD0idGl0bGUxMTUwNDMiPlNoZWV0Ljc0MjE8L3RpdGxlPiYjeGE7CQkJPHBhdGggaWQ9InBhdGgxMTUwNDUiIGlua3NjYXBlOmNvbm5lY3Rvci1jdXJ2YXR1cmU9IjAiIHN0eWxlPSJmaWxsOiM0N0E1QUU7IiBkPSJNMCw2OC4wNGgyLjI4djYuMUgwVjY4LjA0eiIvPiYjeGE7CQk8L2c+JiN4YTsJCTxnIGlkPSJzaGFwZTc0MjItOTUiIHRyYW5zZm9ybT0idHJhbnNsYXRlKDU1LjgyNywtMzMuNjA4OSkiPiYjeGE7CQkJPHRpdGxlIGlkPSJ0aXRsZTExNTA0OCI+U2hlZXQuNzQyMjwvdGl0bGU+JiN4YTsJCQk8cGF0aCBpZD0icGF0aDExNTA1MCIgaW5rc2NhcGU6Y29ubmVjdG9yLWN1cnZhdHVyZT0iMCIgc3R5bGU9ImZpbGw6I0Y1ODIyMDsiIGQ9Ik0wLDYwLjE1aDIuMjh2MTMuOTlIMFY2MC4xNXoiLz4mI3hhOwkJPC9nPiYjeGE7CQk8ZyBpZD0ic2hhcGU3NDIzLTk3IiB0cmFuc2Zvcm09InRyYW5zbGF0ZSg1NS44MjcsLTMzLjYwODkpIj4mI3hhOwkJCTx0aXRsZSBpZD0idGl0bGUxMTUwNTMiPlNoZWV0Ljc0MjM8L3RpdGxlPiYjeGE7CQkJPHBhdGggaWQ9InBhdGgxMTUwNTUiIGlua3NjYXBlOmNvbm5lY3Rvci1jdXJ2YXR1cmU9IjAiIHN0eWxlPSJmaWxsOiM0N0E1QUU7IiBkPSJNMCw2NC41MmgyLjI4djkuNjJIMFY2NC41MnoiLz4mI3hhOwkJPC9nPiYjeGE7CQk8ZyBpZD0ic2hhcGU3NDI0LTk5IiB0cmFuc2Zvcm09InRyYW5zbGF0ZSg0Ni41NzkyLC0zMy42MzY5KSI+JiN4YTsJCQk8dGl0bGUgaWQ9InRpdGxlMTE1MDU4Ij5TaGVldC43NDI0PC90aXRsZT4mI3hhOwkJCTxwYXRoIGlkPSJwYXRoMTE1MDYwIiBpbmtzY2FwZTpjb25uZWN0b3ItY3VydmF0dXJlPSIwIiBzdHlsZT0iZmlsbDojQTZDRTM5OyIgZD0iTTAsNjYuNjNoMi4yOHY3LjUxSDBWNjYuNjN6Ii8+JiN4YTsJCTwvZz4mI3hhOwkJPGcgaWQ9InNoYXBlNzQyNS0xMDEiIHRyYW5zZm9ybT0idHJhbnNsYXRlKDQ2LjU3OTIsLTMzLjYzNjkpIj4mI3hhOwkJCTx0aXRsZSBpZD0idGl0bGUxMTUwNjMiPlNoZWV0Ljc0MjU8L3RpdGxlPiYjeGE7CQkJPHBhdGggaWQ9InBhdGgxMTUwNjUiIGlua3NjYXBlOmNvbm5lY3Rvci1jdXJ2YXR1cmU9IjAiIHN0eWxlPSJmaWxsOiM0N0E1QUU7IiBkPSJNMCw2OC45N2gyLjI4djUuMTdIMFY2OC45N3oiLz4mI3hhOwkJPC9nPiYjeGE7CQk8ZyBpZD0ic2hhcGU3NDI2LTEwMyIgdHJhbnNmb3JtPSJ0cmFuc2xhdGUoNDkuNjE5MywtMzMuNjM2OSkiPiYjeGE7CQkJPHRpdGxlIGlkPSJ0aXRsZTExNTA2OCI+U2hlZXQuNzQyNjwvdGl0bGU+JiN4YTsJCQk8cGF0aCBpZD0icGF0aDExNTA3MCIgaW5rc2NhcGU6Y29ubmVjdG9yLWN1cnZhdHVyZT0iMCIgc3R5bGU9ImZpbGw6I0E2Q0UzOTsiIGQ9Ik0wLDYxLjc5aDIuMjh2MTIuMzVIMFY2MS43OXoiLz4mI3hhOwkJPC9nPiYjeGE7CQk8ZyBpZD0ic2hhcGU3NDI3LTEwNSIgdHJhbnNmb3JtPSJ0cmFuc2xhdGUoNDkuNjE5MywtMzMuNjM2OSkiPiYjeGE7CQkJPHRpdGxlIGlkPSJ0aXRsZTExNTA3MyI+U2hlZXQuNzQyNzwvdGl0bGU+JiN4YTsJCQk8cGF0aCBpZD0icGF0aDExNTA3NSIgaW5rc2NhcGU6Y29ubmVjdG9yLWN1cnZhdHVyZT0iMCIgc3R5bGU9ImZpbGw6IzQ3QTVBRTsiIGQ9Ik0wLDY0LjQyaDIuMjh2OS43MkgwVjY0LjQyeiIvPiYjeGE7CQk8L2c+JiN4YTsJCTxnIGlkPSJzaGFwZTc0MjgtMTA3IiB0cmFuc2Zvcm09InRyYW5zbGF0ZSg1Mi42NTkzLC0zMy42MzY5KSI+JiN4YTsJCQk8dGl0bGUgaWQ9InRpdGxlMTE1MDc4Ij5TaGVldC43NDI4PC90aXRsZT4mI3hhOwkJCTxwYXRoIGlkPSJwYXRoMTE1MDgwIiBpbmtzY2FwZTpjb25uZWN0b3ItY3VydmF0dXJlPSIwIiBzdHlsZT0iZmlsbDojQTZDRTM5OyIgZD0iTTAsNjQuMjFoMi4yOHY5LjkzSDBWNjQuMjF6Ii8+JiN4YTsJCTwvZz4mI3hhOwkJPGcgaWQ9InNoYXBlNzQyOS0xMDkiIHRyYW5zZm9ybT0idHJhbnNsYXRlKDUyLjY1OTMsLTMzLjYzNjkpIj4mI3hhOwkJCTx0aXRsZSBpZD0idGl0bGUxMTUwODMiPlNoZWV0Ljc0Mjk8L3RpdGxlPiYjeGE7CQkJPHBhdGggaWQ9InBhdGgxMTUwODUiIGlua3NjYXBlOmNvbm5lY3Rvci1jdXJ2YXR1cmU9IjAiIHN0eWxlPSJmaWxsOiM0N0E1QUU7IiBkPSJNMCw2Ni40NGgyLjI4djcuN0gwVjY2LjQ0eiIvPiYjeGE7CQk8L2c+JiN4YTsJCTxnIGlkPSJzaGFwZTc0MzAtMTExIiB0cmFuc2Zvcm09InRyYW5zbGF0ZSg0Mi4yNTQ1LC0zOS4xNTY4KSI+JiN4YTsJCQk8dGl0bGUgaWQ9InRpdGxlMTE1MDg4Ij5TaGVldC43NDMwPC90aXRsZT4mI3hhOwkJCTxwYXRoIGlkPSJwYXRoMTE1MDkwIiBpbmtzY2FwZTpjb25uZWN0b3ItY3VydmF0dXJlPSIwIiBzdHlsZT0iZmlsbDojM0U4OUM5OyIgZD0iTTMuODMsNjkuNzNsMC4xMSwwLjFsLTMuODMsNC4zMUwwLDc0LjA0ICAgICBMMy44Myw2OS43M3oiLz4mI3hhOwkJPC9nPiYjeGE7CQk8ZyBpZD0ic2hhcGU3NDMxLTExMyIgdHJhbnNmb3JtPSJ0cmFuc2xhdGUoNDYuMDc3MywtNDEuMTA1MykiPiYjeGE7CQkJPHRpdGxlIGlkPSJ0aXRsZTExNTA5MyI+U2hlZXQuNzQzMTwvdGl0bGU+JiN4YTsJCQk8cGF0aCBpZD0icGF0aDExNTA5NSIgaW5rc2NhcGU6Y29ubmVjdG9yLWN1cnZhdHVyZT0iMCIgc3R5bGU9ImZpbGw6IzNFODlDOTsiIGQ9Ik0xLjc2LDc0LjA2bC0wLjEyLDAuMDhMMCw3MS43N2wwLjEyLTAuMDggICAgIEwxLjc2LDc0LjA2eiIvPiYjeGE7CQk8L2c+JiN4YTsJCTxnIGlkPSJzaGFwZTc0MzItMTE1IiB0cmFuc2Zvcm09InRyYW5zbGF0ZSg0Ny43MTUyLC00MS4xMTY2KSI+JiN4YTsJCQk8dGl0bGUgaWQ9InRpdGxlMTE1MDk4Ij5TaGVldC43NDMyPC90aXRsZT4mI3hhOwkJCTxwYXRoIGlkPSJwYXRoMTE1MTAwIiBpbmtzY2FwZTpjb25uZWN0b3ItY3VydmF0dXJlPSIwIiBzdHlsZT0iZmlsbDojM0U4OUM5OyIgZD0iTTMuNTgsNjYuMzlsMC4xMywwLjA2bC0zLjU4LDcuNjlMMCw3NC4wOCAgICAgTDMuNTgsNjYuMzl6Ii8+JiN4YTsJCTwvZz4mI3hhOwkJPGcgaWQ9InNoYXBlNzQzMy0xMTciIHRyYW5zZm9ybT0idHJhbnNsYXRlKDUxLjI0NjcsLTQ0LjM1NTkpIj4mI3hhOwkJCTx0aXRsZSBpZD0idGl0bGUxMTUxMDMiPlNoZWV0Ljc0MzM8L3RpdGxlPiYjeGE7CQkJPHBhdGggaWQ9InBhdGgxMTUxMDUiIGlua3NjYXBlOmNvbm5lY3Rvci1jdXJ2YXR1cmU9IjAiIHN0eWxlPSJmaWxsOiMzRTg5Qzk7IiBkPSJNMi40Miw3NC4xNGwtMC4xNy0wLjAzTDAsNjkuODlsMC4xNywwLjAzICAgICBMMi40Miw3NC4xNHoiLz4mI3hhOwkJPC9nPiYjeGE7CQk8ZyBpZD0ic2hhcGU3NDM0LTExOSIgdHJhbnNmb3JtPSJ0cmFuc2xhdGUoNTMuNjczOCwtNDMuOTQyNykiPiYjeGE7CQkJPHRpdGxlIGlkPSJ0aXRsZTExNTEwOCI+U2hlZXQuNzQzNDwvdGl0bGU+JiN4YTsJCQk8cGF0aCBpZD0icGF0aDExNTExMCIgaW5rc2NhcGU6Y29ubmVjdG9yLWN1cnZhdHVyZT0iMCIgc3R5bGU9ImZpbGw6IzNFODlDOTsiIGQ9Ik0wLjA2LDc0LjE0TDAsNzRsMy40NS01LjZsMC4wNiwwLjEzICAgICBMMC4wNiw3NC4xNHoiLz4mI3hhOwkJPC9nPiYjeGE7CQk8ZyBpZD0ic2hhcGU3NDM1LTEyMSIgdHJhbnNmb3JtPSJ0cmFuc2xhdGUoNDUuNjY3MiwtNDMuMDQ0OCkiPiYjeGE7CQkJPHRpdGxlIGlkPSJ0aXRsZTExNTExMyI+U2hlZXQuNzQzNTwvdGl0bGU+JiN4YTsJCQk8cGF0aCBpZD0icGF0aDExNTExNSIgaW5rc2NhcGU6Y29ubmVjdG9yLWN1cnZhdHVyZT0iMCIgc3R5bGU9ImZpbGw6IzNFODlDOTsiIGQ9Ik0wLjQ3LDczLjJjMC4yNiwwLDAuNDcsMC4yMSwwLjQ3LDAuNDcgICAgIHMtMC4yMSwwLjQ3LTAuNDcsMC40N1MwLDczLjkzLDAsNzMuNjdDMCw3My40MSwwLjIxLDczLjIsMC40Nyw3My4yeiIvPiYjeGE7CQk8L2c+JiN4YTsJCTxnIGlkPSJzaGFwZTc0MzYtMTIzIiB0cmFuc2Zvcm09InRyYW5zbGF0ZSg0Ny4yOTkyLC00MC44MjE3KSI+JiN4YTsJCQk8dGl0bGUgaWQ9InRpdGxlMTE1MTE4Ij5TaGVldC43NDM2PC90aXRsZT4mI3hhOwkJCTxwYXRoIGlkPSJwYXRoMTE1MTIwIiBpbmtzY2FwZTpjb25uZWN0b3ItY3VydmF0dXJlPSIwIiBzdHlsZT0iZmlsbDojM0U4OUM5OyIgZD0iTTAuNDcsNzMuMmMwLjI2LDAsMC40NywwLjIxLDAuNDcsMC40NyAgICAgcy0wLjIxLDAuNDctMC40NywwLjQ3UzAsNzMuOTMsMCw3My42N0MwLDczLjQxLDAuMjEsNzMuMiwwLjQ3LDczLjJ6Ii8+JiN4YTsJCTwvZz4mI3hhOwkJPGcgaWQ9InNoYXBlNzQzNy0xMjUiIHRyYW5zZm9ybT0idHJhbnNsYXRlKDUwLjg4NjksLTQ4LjE4ODIpIj4mI3hhOwkJCTx0aXRsZSBpZD0idGl0bGUxMTUxMjMiPlNoZWV0Ljc0Mzc8L3RpdGxlPiYjeGE7CQkJPHBhdGggaWQ9InBhdGgxMTUxMjUiIGlua3NjYXBlOmNvbm5lY3Rvci1jdXJ2YXR1cmU9IjAiIHN0eWxlPSJmaWxsOiMzRTg5Qzk7IiBkPSJNMC40Nyw3My4yYzAuMjYsMCwwLjQ3LDAuMjEsMC40NywwLjQ3ICAgICBzLTAuMjEsMC40Ny0wLjQ3LDAuNDdTMCw3My45MywwLDczLjY3QzAsNzMuNDEsMC4yMSw3My4yLDAuNDcsNzMuMnoiLz4mI3hhOwkJPC9nPiYjeGE7CQk8ZyBpZD0ic2hhcGU3NDM4LTEyNyIgdHJhbnNmb3JtPSJ0cmFuc2xhdGUoNTMuMTk1MSwtNDMuNTEzNSkiPiYjeGE7CQkJPHRpdGxlIGlkPSJ0aXRsZTExNTEyOCI+U2hlZXQuNzQzODwvdGl0bGU+JiN4YTsJCQk8cGF0aCBpZD0icGF0aDExNTEzMCIgaW5rc2NhcGU6Y29ubmVjdG9yLWN1cnZhdHVyZT0iMCIgc3R5bGU9ImZpbGw6IzNFODlDOTsiIGQ9Ik0wLjQ3LDczLjJjMC4yNiwwLDAuNDcsMC4yMSwwLjQ3LDAuNDcgICAgIHMtMC4yMSwwLjQ3LTAuNDcsMC40N1MwLDczLjkzLDAsNzMuNjdDMCw3My40MSwwLjIxLDczLjIsMC40Nyw3My4yeiIvPiYjeGE7CQk8L2c+JiN4YTsJCTxnIGlkPSJzaGFwZTc0MzktMTI5IiB0cmFuc2Zvcm09InRyYW5zbGF0ZSg1Ni42NTAzLC00OC45OTYxKSI+JiN4YTsJCQk8dGl0bGUgaWQ9InRpdGxlMTE1MTMzIj5TaGVldC43NDM5PC90aXRsZT4mI3hhOwkJCTxwYXRoIGlkPSJwYXRoMTE1MTM1IiBpbmtzY2FwZTpjb25uZWN0b3ItY3VydmF0dXJlPSIwIiBzdHlsZT0iZmlsbDojM0U4OUM5OyIgZD0iTTAuNDcsNzMuMmMwLjI2LDAsMC40NywwLjIxLDAuNDcsMC40NyAgICAgcy0wLjIxLDAuNDctMC40NywwLjQ3UzAsNzMuOTMsMCw3My42N0MwLDczLjQxLDAuMjEsNzMuMiwwLjQ3LDczLjJ6Ii8+JiN4YTsJCTwvZz4mI3hhOwkJPGcgaWQ9InNoYXBlNzQ0MC0xMzEiIHRyYW5zZm9ybT0idHJhbnNsYXRlKDQxLjc4NTQsLTM4Ljc4MzUpIj4mI3hhOwkJCTx0aXRsZSBpZD0idGl0bGUxMTUxMzgiPlNoZWV0Ljc0NDA8L3RpdGxlPiYjeGE7CQkJPHBhdGggaWQ9InBhdGgxMTUxNDAiIGlua3NjYXBlOmNvbm5lY3Rvci1jdXJ2YXR1cmU9IjAiIHN0eWxlPSJmaWxsOiMzRTg5Qzk7IiBkPSJNMC40Nyw3My4yYzAuMjYsMCwwLjQ3LDAuMjEsMC40NywwLjQ3ICAgICBzLTAuMjEsMC40Ny0wLjQ3LDAuNDdTMCw3My45MywwLDczLjY3QzAsNzMuNDEsMC4yMSw3My4yLDAuNDcsNzMuMnoiLz4mI3hhOwkJPC9nPiYjeGE7CQk8ZyBpZD0ic2hhcGU3NDQxLTEzMyIgdHJhbnNmb3JtPSJ0cmFuc2xhdGUoMi4xMDYzNSwtMjEuMTA2MikiPiYjeGE7CQkJPHRpdGxlIGlkPSJ0aXRsZTExNTE0MyI+U2hlZXQuNzQ0MTwvdGl0bGU+JiN4YTsJCQk8cmVjdCBpZD0icmVjdDExNTE0NSIgeD0iMCIgeT0iNzAuMDkiIHN0eWxlPSJmaWxsOiMxQzc1QkM7IiB3aWR0aD0iOTAuNzIiIGhlaWdodD0iNC4wNSIvPiYjeGE7CQk8L2c+JiN4YTsJPC9nPiYjeGE7PC9nPiYjeGE7PC9zdmc+;" vertex="1" parent="1">
          <mxGeometry x="157.74" y="460.00000000000006" width="62.53" height="48.05" as="geometry" />
        </mxCell>
        <mxCell id="h6uiqYct_Y92gPMNIy-R-22" style="edgeStyle=orthogonalEdgeStyle;rounded=0;sketch=0;orthogonalLoop=1;jettySize=auto;html=1;entryX=-0.064;entryY=0.483;entryDx=0;entryDy=0;entryPerimeter=0;fontSize=13;" edge="1" parent="1" source="h6uiqYct_Y92gPMNIy-R-23" target="h6uiqYct_Y92gPMNIy-R-26">
          <mxGeometry relative="1" as="geometry">
            <Array as="points">
              <mxPoint x="335" y="709" />
              <mxPoint x="335" y="709" />
            </Array>
          </mxGeometry>
        </mxCell>
        <mxCell id="h6uiqYct_Y92gPMNIy-R-23" value="adds new &quot;clicks&quot; data to blob&lt;br&gt;in Azure storage account" style="verticalLabelPosition=bottom;html=1;verticalAlign=top;align=center;strokeColor=none;fillColor=#00BEF2;shape=mxgraph.azure.storage_blob;fontSize=13;" vertex="1" parent="1">
          <mxGeometry x="165" y="680" width="60" height="55" as="geometry" />
        </mxCell>
        <mxCell id="h6uiqYct_Y92gPMNIy-R-24" value="" style="shape=image;html=1;verticalAlign=top;verticalLabelPosition=bottom;labelBackgroundColor=#ffffff;imageAspect=0;aspect=fixed;image=https://cdn3.iconfinder.com/data/icons/minimalisticons/28/add-128.png;fontSize=13;fillColor=#116B86;" vertex="1" parent="1">
          <mxGeometry x="205" y="670" width="30" height="30" as="geometry" />
        </mxCell>
        <mxCell id="h6uiqYct_Y92gPMNIy-R-25" style="edgeStyle=orthogonalEdgeStyle;rounded=0;sketch=0;orthogonalLoop=1;jettySize=auto;html=1;fontSize=13;" edge="1" parent="1">
          <mxGeometry relative="1" as="geometry">
            <mxPoint x="668" y="480" as="targetPoint" />
            <mxPoint x="668" y="660" as="sourcePoint" />
            <Array as="points">
              <mxPoint x="668.47" y="570" />
            </Array>
          </mxGeometry>
        </mxCell>
        <mxCell id="h6uiqYct_Y92gPMNIy-R-26" value="Blob triggered&lt;br&gt;Azure function" style="aspect=fixed;html=1;points=[];align=center;image;fontSize=12;image=img/lib/azure2/compute/Function_Apps.svg;" vertex="1" parent="1">
          <mxGeometry x="653" y="680" width="68" height="60" as="geometry" />
        </mxCell>
        <mxCell id="h6uiqYct_Y92gPMNIy-R-27" value="&lt;i&gt;&lt;br&gt;&lt;span style=&quot;color: rgb(0, 0, 0); font-family: Helvetica; font-size: 13px; font-variant-ligatures: normal; font-variant-caps: normal; font-weight: 400; letter-spacing: normal; orphans: 2; text-indent: 0px; text-transform: none; widows: 2; word-spacing: 0px; -webkit-text-stroke-width: 0px; background-color: rgb(255, 255, 255); text-decoration-thickness: initial; text-decoration-style: initial; text-decoration-color: initial; float: none; display: inline !important;&quot;&gt;user_item_matrix blob update&lt;/span&gt;&lt;br style=&quot;border-color: var(--border-color); color: rgb(0, 0, 0); font-family: Helvetica; font-size: 13px; font-variant-ligatures: normal; font-variant-caps: normal; font-weight: 400; letter-spacing: normal; orphans: 2; text-indent: 0px; text-transform: none; widows: 2; word-spacing: 0px; -webkit-text-stroke-width: 0px; text-decoration-thickness: initial; text-decoration-style: initial; text-decoration-color: initial;&quot;&gt;&lt;span style=&quot;color: rgb(0, 0, 0); font-family: Helvetica; font-size: 13px; font-variant-ligatures: normal; font-variant-caps: normal; font-weight: 400; letter-spacing: normal; orphans: 2; text-indent: 0px; text-transform: none; widows: 2; word-spacing: 0px; -webkit-text-stroke-width: 0px; background-color: rgb(255, 255, 255); text-decoration-thickness: initial; text-decoration-style: initial; text-decoration-color: initial; float: none; display: inline !important;&quot;&gt;model blob update&lt;/span&gt;&lt;/i&gt;" style="text;strokeColor=none;align=left;fillColor=none;html=1;verticalAlign=middle;whiteSpace=wrap;rounded=0;fontSize=13;" vertex="1" parent="1">
          <mxGeometry x="705" y="560" width="190" height="30" as="geometry" />
        </mxCell>
        <mxCell id="h6uiqYct_Y92gPMNIy-R-28" style="edgeStyle=orthogonalEdgeStyle;rounded=0;sketch=0;orthogonalLoop=1;jettySize=auto;html=1;fontSize=13;" edge="1" parent="1" source="h6uiqYct_Y92gPMNIy-R-29">
          <mxGeometry relative="1" as="geometry">
            <mxPoint x="225" y="479" as="targetPoint" />
          </mxGeometry>
        </mxCell>
        <mxCell id="h6uiqYct_Y92gPMNIy-R-29" value="User" style="sketch=0;outlineConnect=0;fontColor=#232F3E;gradientColor=none;fillColor=#232F3D;strokeColor=none;dashed=0;verticalLabelPosition=bottom;verticalAlign=top;align=center;html=1;fontSize=12;fontStyle=0;aspect=fixed;pointerEvents=1;shape=mxgraph.aws4.user;" vertex="1" parent="1">
          <mxGeometry x="315" y="440" width="78" height="78" as="geometry" />
        </mxCell>
        <mxCell id="h6uiqYct_Y92gPMNIy-R-30" value="" style="edgeStyle=orthogonalEdgeStyle;rounded=0;sketch=0;orthogonalLoop=1;jettySize=auto;html=1;fontSize=13;endArrow=none;" edge="1" parent="1" target="h6uiqYct_Y92gPMNIy-R-31">
          <mxGeometry relative="1" as="geometry">
            <mxPoint x="665" y="200" as="sourcePoint" />
            <mxPoint x="145" y="480" as="targetPoint" />
            <Array as="points">
              <mxPoint x="665" y="160" />
            </Array>
          </mxGeometry>
        </mxCell>
        <mxCell id="h6uiqYct_Y92gPMNIy-R-31" value="Github repository" style="dashed=0;outlineConnect=0;html=1;align=center;labelPosition=center;verticalLabelPosition=bottom;verticalAlign=top;shape=mxgraph.weblogos.github" vertex="1" parent="1">
          <mxGeometry x="295" y="130" width="50" height="50" as="geometry" />
        </mxCell>
        <mxCell id="h6uiqYct_Y92gPMNIy-R-32" value="&lt;font size=&quot;1&quot; style=&quot;&quot;&gt;&lt;b style=&quot;font-size: 29px;&quot;&gt;My Content Architecture Scheme&lt;/b&gt;&lt;/font&gt;" style="text;strokeColor=none;align=center;fillColor=none;html=1;verticalAlign=middle;whiteSpace=wrap;rounded=0;fontStyle=4" vertex="1" parent="1">
          <mxGeometry x="90" y="55.81" width="480" height="30" as="geometry" />
        </mxCell>
        <mxCell id="h6uiqYct_Y92gPMNIy-R-33" value="" style="shape=image;imageAspect=0;aspect=fixed;verticalLabelPosition=bottom;verticalAlign=top;fontSize=29;image=data:image/png,iVBORw0KGgoAAAANSUhEUgAAAl0AAACnCAYAAAArFOl9AAAAAXNSR0IArs4c6QAAAARnQU1BAACxjwv8YQUAAAAJcEhZcwAADsMAAA7DAcdvqGQAAGkISURBVHhe7Z13nCxF1YbZ3ck57N4LSAYJEgSRnJOiiKKiCGIOmEgqGBBFBXMCMaESTJgRMYsIRlBAUBEEQdidHO8FSfrp+d73dPfQO3d27+ad3T1/vL+e0F1dVV1d9VTVqVMbjPzfGjGZTCaTyWQyza8Mukwmk8lkMpkWQAZdJpPJZDKZTAsggy6TyWQymUymBZBBl8lkMplMJtMCyKDLZDKZTCaTaQFk0GUymUwmk8m0ADLoMplMJpPJZFoAGXSZZqb/dKnXOSaTyWQymToy6DJNTy5kDfPzf135fl/nfJPJZDKZTCqDLtO0tQoaJmA96mj43+P/N5lMJpPJtK4MukxTF0HrEUDX2rbkxlqS+1tTcn+F7mnJ8FqDL5PJZDKZJpNBl2ld+aYKh/+Ho6yVVYLj/YCtvzcl9ZOaxD5UlsjLShI5sSixs8uS/nFd8rW2jHjgZVONJpPJZDKNk0GXyZEPtNRO639r9fvwmrZk7wBoAariH6lI+PiSDG1XkKFNx2RoxzEJPAnahceCxC+sSu7e1rphm0wmk8lkMuha0fJDlieCVrstubtbkrm2IQmAVPSEsoQOK0pgH8DWrmMyuDW0BaDrCRCAi/A1uO2YBPcqSvq7db3eC2ude5pMJpPJtEJl0GXSKcHhB9qSL7Ule0tTUt+sS/y9VYm8tCzBQwFaGwOqRhzQGiRk7QU9GXqSqz0dDYbGJH5eVfL3tGQVpyUNukwmk8lk6siga6WKI1qPrJF8G6DljmqlPleT6BtLEjwCoLU5ICo/KoPbQrsDqvaAAFqDhKxdu+T+PxAaxfVlyd3alNX/XfuYfZfJZDKZTCaDrmUtjjRRLvzo6BMN4glED61R2EpdVZfYWWUJ7VeUoQFA1QajClwKUnvjO4/dkNUtF7o2AHRFTi1J9k8Ngy6TyWQymbpk0LXc5IEWhe/DnlE8P9PVw51NSf+4JrEPVyT0opIEdivI0PaAJtc2S/VEaDeIo1o89gItv3zQFT6lJJmbGw7YGXSZTCaTydSRQddykQta4zzF01ZrDUDrrpZkflWXxKerEj2pLOFDixLY1TWK3w4idBG0PButqYCWXz7oCgG60gZdJpPJZDKtI4OuZSJ6iV9F6CJo/ctxXpq5sSmpr9ckfmZFIi8qSfAwZ1RrcNWoDG4I7QRYokE8NRloeaNeE0GZQZfJZDKZTOuVQddyEOBm1UM4Njh92JL0z+qS+FRVIgCgwIEFGYyPyUAckLU14IjQBEDqrD70w5NfPtAa5HcCGqced8Z3P4Txs0GXyWQymUzrlUHXUpJnq/VfQBYN4gVgAw23AFt/bkjqm1UJn1aSoSTAaANAFiBoaCOILh72hQha3XDVSwQpnrs3RFcQWyCsKMQwCW/b4XeGSRG4/DZdJ5ckc9McQ5eXbi88b0FAJw9w9PyCUd3Xm0wmk8nUBzLo6md5EOGBBGGDRvHcZLrpeIpPfqsm0XdVJPT0ogS2BPzQp9YOOHJkaucxCUzVVosjWgQtjoLx3M3wnYCVG5XgUwoSPaUssbeUJfIKQN0+BRnM4H+6lHg8ziWc7eO4jKAh/ZyMdHWlXbcj8rzk39+WfLmlDlyzd+FYb8nwI21dNKALB7z8MplMJpOpj2TQ1Y/yoIEA4YmgxelDgFb6h3WJn1uVyLMdVw+BPQvOtB+nD7eCvCm/9YEWxfMAW4OAs8GtAVGrR9XuK3hQQSIvKEn8bRV1lpr9Q1Nyf25K5lcNSVxSk/gZFQk/H/feA/em09TNR2Vg6L7ZTy96kMXP/rTTS/49LclcV5fE+VWJnVaR6Mu5/yNgkHH8fl1yo4AvQhmv8YdpMplMJlMfyKCrH+VBgwsb9PCe+W1DkpcCdt5aURgK7g3YWQXYoVH8Ni5A0TM8IaobrPwihPlGvjhSpVv6bDcmgX3GJHxIUaKvLkvigqqkrwbI3AmQWdPWuCgQPbxG8oS/21su/CE+J5QkdERRBjcalfAbnenFVTOFLjftuiCAXvIBUtkbGpL6GtJ+NkDzRKQdQKj2ZYRMKIA0h55X0vzJlVvOiKCNdplMJpOpz2TQ1W8ibDwIqKm3JXtbU9Lfb0jiQ1WJvtIxih/aCJDElYdPgDgVCOm0ICGqF2RRftDy++Pif4SWrQsSPrwosfPKkv4eQAv3pZ0YR404padOVT0Q5NGd6hsmgFURz1sRz2/XJfLissQ+UtHvq3nO+qCrG4z4/SGE2UT6/wHY+iVgi24uTnFXXhIyk6MyxClNpIWOW5l2amB4FOBVlPS1dSe+/nBNJpPJZOoDGXQtlggYhBIcFRJoEM7fADvc/zDx5aqEXw3Q2r4ggxsALIKALPrTomH7Xg5wrANXveRNNe6La3jt4xDOABQalcBOBYmeVpLUt2oKeNwSSKFKAH6Ik07xMU5Ud9whtaHy4v5/ayVXaumoHO3NNE3d1/mvJ1y6Yej1hLi1DmimvlNzvOQfANCi7RhAa3AriHBJ+zF/2pk+gufjkZ5DxiR+QaX3PU0mk8lkWmQZdC2UXFBRWOF3HTFaK6sAK2oUf0tDjeJj7wRsHAXY2hrA8QQAxc4QjeIpQoY7LdiBjh7q7JXoGsXTsH4gDWgBwAT2Lkjk5JIkP12VzDUNyXP6sNF2Rq16xbn7t0nEKUGdhuwe4fKlnSKQrWba8ZlTl9m/NyX9o7p6yQ8/C2nfEmnfBHHnIoBdEH+KafNG67rTz9+2Rdr2H5PY+8o6Lal5bDKZTCZTH8mgaz7lhw1CFu2cXFunPKcPb29KCuATf59jpxXavyABQgSnALcBaOwI+acGJ4Mt/seRII5m0age0DI4AtDaEjByKEDrlWWJv6Miqa/U1WlqfqwlI4ATPyDNCagwnTyuk3ZX/G9tW/J3NztG8bog4OCiBPYBbAEuGWddFDCNlZdDXLG5z5hEzwJ01ZAuLz68v/fZZDKZTKZFlEHXfAqQQU/xbPiHH3FGdXL/bEnmNw1JfrYm0VMrEjqhJIH9ABs0ZufKwc1wJGBwlIojVhPBBn/3gITiiNi2gBXX3im4Z0GN26OALTpKzf4eoMWpP04hErT8IOQHpO40TEe9wmH4XBBwP9JeAGjeSH9iNYm/E6D5wqIE9y3IoLcggFOIBE7CIzUZaPmF9BJQ6TcsemZZ8qWWk+9enLzPJpPJZDItogy65lOAm1X/AnBUABuusTmN4sMvd/Y+HEyMyUAGoMWpQ0IGQIsr8SaFDR9sqZsHwganITnSQ5uvnQsSfmlJ4h+vSPqndcnd1ZSRf7V1NaFO6QGCxtlqzReUIO3DD7UlT8etd7QQl4bCX/QNJQk+FWnfFHFPALK4KMCdCl3vgoCJxLxgHuwN6HpLWVcwGnSZTCaTqd9k0DUXcuHFMYiHADf8nqu2JHMD/VoBtE4syeAA4IBG7DF3VIdG4fs50NATJrpF4CKg0BM8gQvAMkAD+6ExCe5XlNj7y5L+OUDr7jaAh3FBPCD1Xs84coRrriHETbt+ZvppEA+wy9Mo/s9NSV5Rk+jpJQnsDMBk2gOATI7qEbD2cdPTK63TkQddHOkidNlIl8lkMpn6UAZdM5EHGl2wQR9WwwCt3I0NSX6xKpE3l3T6TKcMN4dco3i1uXJhYVLgcke1Ar7pNk7DDcXwG8ILPaeokEH/VJnfNiU3Cti6H3HwfGp1x3su5Et7Z0GAa6emDkxvdb3kc0HAM0oy9Hikn6NwnDakutM+2ajeVIVwDLpMJpPJ1O8y6JqO3AacU3SePZSu+iu3JHuru/rwLRWJPB2wtWfBgSUAB43Cdb9CTh1OBTb4nwdanD7cbNTxFA9gCR0O0HpZSRLvr0r6x3XJ/qUp+Qpg60HEhfHz4tYd99nIhSz9jLA76Sdo0VEq/Yn9qC7x85D240oSAmjq9kMcjaOdGRcEMF3+9HeneTYy6DKZTCbTEpBB11Tlg5lVNAzn6sM7mpK6ui4JOvB8A2Dj2QUHNFZDtFUiaBEwOIVG4OgFDJ54ngclHBHidj4cHQOwBPcvSOSoksTeWJHkJTU1xM/f11JbLSduaztxGwdIcyT1peWFz7RzQcDdLfWSn/pcTeInlyV8bFECHNXrXhBAL/nuKF3PdM+FDLpMJpPJtARk0DUFcRqNU3Y6dVcBcPy5KelvADbeVZbQ8UU09gUZzAKy6HiUozqELICG+sta34gWIYvi1CNHtXgEuAUAL6Edis7+hxdWJEufWv9s6SpAx1O8a0PmQZanrrjPSF3h5PF9mAsCqkj731o6whb/QFXCryxKcDeAVgJpne6CgLmUQZfJZDKZloAMurrlgxeFGo4icWua0ZZu9py8qCqRV5UksClAi4bhKYigtDdAg6M6BKheYNBLBJN9HEgbzCGcIYDLCGDrsILEzy3r3ocErZEHEA81igf4IE7jVh/64z5bMTxOGeKzjm5xtSO/19qSuR5pv5Rb8pQl8CSkPYz4xiEuCADsdDzFLxRo+WXQZTKZTKYlIIMuTx7EKGxA9KtVBGj9viEJGsW/vqTb0gQ4bcYGnqM6FIHLG7Faz6jWOE/x/L71mAzEHMP40JFF3fom9aWqAg6dl3pG8Tqy1SvOs5WXZjd8hUwuCMA98wCt7M1NSV9ek+g7KhLaryhDAE2d8mR6kO5xnuIXA7Y8GXSZTCaTaQnIoMuVsxIPwLG2Lbk7ABvfq0sMsBF+uuPAM0Cw4PQfnY8StvygNRlw8BwXtHTqcfWoDA4DtHYYk+DTihJ5XVkS765K+qq65P7qGcW7U4hdcZwzuaA1bkEA4Y5G8X9D2jl9+B6A5jGuUfzezgpEXRBAX2Be2r3090r3QgrxMOgymUwmU7/LoMtV/qG2ZO9qSerbAI6zAFvPKUpgL8AGt9Ph6kHChgdQk02jeUDCcwgDHBHazoUVXBvcpyDho4oSPb0iictqkrm5KcO6JQ/iQUDwgZAHR73iOyshbIUSghYh8+6WpK913FzETisj7SUJPNl1YLoR0r4dIJHpYtrn2yh+JjLoMplMJtMSkEEXGuX8mrZk/tSQ2PsrEjy6qCsHdUSKqwi5l+H6QItyYYt7Jeq0GyCAG017BvLB/QoSPbkscYBN5td1yY221IHpqv85nuIVstz4zCsoALR01SOnD//S1BG2xAerEn5xSYb2B2jRtiwJbYH4E7CmsiBgsWXQZTKZTKYloJULXWyMaZT+AIDrd3UJva4oA4SNLdF4E7JoGM4Rq16NfC8RUNDoD+6EMABsAwEcQ2MSemZRYudXJA3QGi7QxQMN4h2jeLWhYlzm01M8YY73+e9anbLk9GX2hqYkvgTQOgmgtRnizAUB3JKHLi6Ybs8ovlc6+1EGXSaTyWRaAlqZ0IWG2FsBmL2+IdFTyzKw4WMNuGo9o1odo3jCFqcQCWwxfN6hoG4k4u8pS+qKuu65mC+31eWCwlV3XOZCBAufuPKQI2i6z+IjbcnVWpK5mdsRVSRyakmChxVlkAbxnPLkaB7FETmmzUt7P49sdcugy2QymUxLQCsWurhKL19oSeK8qgQ4HUgAce2wejbsFP8jZAG2OHU4uMmoDG08pteHji7q9CE3dU5f3ZDcXS3JtwFbgJ6ecZgLeaDFz50RLQj3HAZ4ZG9qSPIbNYmeWZHwUYCt3QsaV0KWjmpxQQDT5E0fLiXQ8sugy2QymUxLQCt3ehFwkr6uIeFjS+rYVDdf7tWge6KneYLW5o74W+jggkSeX5LYWRVJfqcumT81JY8Gn6sPFX488X5+QJpDKVwgXNqH0c1D7vaWZH5Rl8QH6E+M+x8WJQDYGnoc4kxP8VvjSNACoKzXTm2pyKDLZDKZTEtAKxe6/r1GEpdWJXigYzyuU4XrA5CdxiSwdUGCuxQlclJZkhdXJXtDw5k+BPRouN5okwdZ89XoE7QeAXTdD9gqALT+0JTU5XWJv6sioRcBtOjeIQltiLQx7t5U6HIBLb8Mukwmk8m0BLSyoMttgGnzxO10Yh8vy9C+aKw3HnU2p+7VoFOAlMDBBQm/vCiJzwG0uPfhaEtGHgT0eJ7i53NEyw3T8xKvRvG4d/belmSvrUviUxUJn1hUH2KDNODPQwDEQRrEc0SLI1u90rVcZNBlMplMpiWglQld/LwW0PVRB7pom6XuEbobc44IUTuPSeQlJUl/py7DtTWyIWHLM4p3gWicvPvNRN3hALQ6nuIfbkuOo1o3cEuemkReU5Lg9oCtjRDHbdw4017riW68CVvLbVSrlwy6TCaTybQEtHKha80UoItyoSt0VFHi761I5rqGDP+jJcPttuPzil7sVc5IlLcqcsbS0SzKCXPkwbbkuR3RTQ1Jfbsm0deWJXwEYIue4hnnbRF/Ahe95ROyPK0E2PJk0GUymUymJaAVD10BF7rU3qlXg05x5GiPMQkeXpDIC13D+S/XJPNrd5Viva3TlcMPAcT+vUZdNXQa/clEqMLRO5d+tHQ7ngcAWo22ZLklzw/rkvhYVSKvLEvoaQAtTiFuCG2KOO/oxpv2WsvRVmuqMugymUwm0xLQyoauj7jQRYCZDLooTtvRU30G524+JoFDxwBCJR39Sl5Sk9QP6urzKw8IG64CvghiTWgN7seNqx/oEn9bC7Xbsorn4fzcWEu9xGd+1pDkZTXdADt8bNFZOZmC6AuMXu4JWVDfe4pfKBl0mUwmk2kJyKDLha4Jpxc9EW54Dl1LAHYGtxyVgRQ0CIVHJbBdQcLPK0rsHIDYFwBiX6vqdGD6J3V1TZH+TdMnfod+Cf0Q53y7KsmvViV+QUUiJ5cksHdRBqKIE8IeHIHouNQziido9YrfSpZBl6mfxTLoqdf/JpNpxciga6rQRRG8XA3iuxqs09mo9z/tq3STaIh+sTYZk8BmBQnuBO1TXFe7FfR/3VSb59MrPq/3wmPYK80ofibqV+jy7t3PjS3j5o9fP8e1n+XlY3f+0dRAbTTdo2tS0FGva0wm07KVQdd0oMsvD4Qob5qPbhq2h7ZzRfsr+sviZ/7XpSGCwjb4TFhzpVvzMHyG6YGWwdbk6kfoYmPrqVdj2ydy3JA8FlfGs+P+xLR+edDk5qMefXlIO0+aENB8YKQFPeL8znM0v7lgxls044XnhW0ymZadDLqmatM1FRGSaG/FaUBqTwjh0vaqlxSseF+e54nfDbKmp36CLja4aGjzYy3J/bkpuVsgHPPV1vxuCTUT/XuN5NdyFwPE8VZXd7ckzx0Vep1vWleEJYpbbwGucvSdd1NT0tfVJfWzuiS/W5PEZTVJXgThmLoS+nldMr+pa37nS7gOz6ADYyaTaVnLoAvQNQTomtQ56mzljVZNpF7XmKaufoEu3GsVHeXW25L+Vl3iZ5QldmZZom8uS/qndV3lqqMhCw2C3eL9CYf/akvmlobEz6loXONnViT52ZrkKq3x5/qvNT0mQKsCdrUt2ZubkvounvnHqhI9vSyhlxUleFxBAkeNSeAQaH/3+MwxCb6gIOFXFSX21rIkP1OV9JV1vT5fAYBxZwvL8/kV8ldXils+L7gszw26Fga6TPOrfoAu3ocOc/+3VnKjLYm9oSJDEcRreFQ2CNwnsdNK2rCqT7fFrnh4f0BXfqytG7QP5EdlIDEqg7FRCR+OeN4D6PqPG8/Fjmu/Cfmh04L4PNxeI9lbmhL/YkXCLy2pTedACPmYhbbAs98Cx82hraDtoG34u6vN8H8W+R4YlSGcG35RSeKXVCVzK8rIg+Pv1/lsmr2YnxzhdWUQsEBCPjOvvXxfyeXaoGumNl2m/lGfQRdhJv7uqgR2LjhTyE8ck+BBBR1FYrlTG6/FqnR4X45yPdiW9DUNCT2z6CwKcfMx8uqy5P9J6HLPXax49pu8vODzvb8tmT82JP6RioQOdRfCcIUxzQa2BHgNAbSDqFOC+A1wFdi7IIG96MwY5+ZxDv4b4P9hABdtOjnaDWAL4NzQ/kVJnF+R7J8a6vuP9zMbu7kTgXk18tRTx97Syvn8iXmLzuYqX76Ps2NcYTLoMuha+upH6HpPFbCFRpbliu4+0KBGATQ62sX9Oherkud90dDkAFbxj1adVbN7Iv9c+0LueGDQ1UNsINhLR94kLqpK+ISSBPZ0nq+OWo0AoLYHXB9ZkPArShJ9Z0US769K8jM1SX61Lsmv1CX1ZRzPr+nv9MEXeVVJQs8qArwKMhhHHZRGGIC34K4I4/iSJC6uSfbupgzjvlpnmWYs3S2Ez6/ckuwtDUn/vi6Z3zck9w/kL+HWwGv+BODKNdFRuQ35/lvk+x/qkkO55m4rKxG8DLoMupa++gy6hkcBXecAunZCo8xRDMSLrkSChxcl8fmqOsftGcZCiI3Pw2vUxix8YkkGV6Gh5+IP5GMAcY2+xqCrW2ywObpFYI6/rSLBpxVlcMcxGdgM9cY2yLeDAEmAp9gby5K4pIaGpSH5u1syXHQcJXN3CWqYxwpUaEnurqael/xaXWKnVyR8dFEhjuENbohwtxqT0FNQXj7B8oJrV2DjNJdS6Hp0jYJW7H1lCZ1YVKUur+mil76wtVyG4pTiKnQyM39vSPT8sgRfiHfl1cj3K5DvtZUJuwZdBl1LX/0MXYif2gu6Pt3CLytJ9u/o5XnxWsgKB/eioX8OMBB7X0WBUKfF3PgZdK0rBa616KWzsX5zWYYehzwjGLk+9AJ7FCT6jrKkf1ST3D1NnbZlnq1G774zfdUlnWZxIYogQBvA9C8AX++tSOgAwNc+gK9tAek7FiR+SkU351+JIwJzJjwPhdZH0Nn4fl1CxxRkg9h9MgDF31OR3J2ErrXO+9vretPMxHxHnm6IvM3ciHwHcNG+dfBxoxI/H/mOetKga7nLfbgTQhdHJbobdFP/q8+hi/HjTgYDm49KYPeCpL5bQ+Psu3YhBRjIXNuQ8LElNfIf2g95x5Eug67xQrp1dATPNHM9eumvL8sGUWdUcJDPc1MA9IElSXFVKnrsq3EeAaszIsWy4JdXPvzfcZ6ezzKDa/MtwB2fDcA8sGtB93jNA8gW1QZwOch9liMc4f1ZXcKvLOqiBtrRxT9elezdLnRZHs+t3DJP6Mregnx/cVF3cQnsW5DkF6qSLxp0LX+5D7cndLHhIXQZeC099Tt0oUwR6p1RpYJECDb3oqLn+QtZ6eBebNhj51QksH/ByTPachEiDLrGC+km7GRuaOgeqzSQZx0xmEOjsSeA6J3oqf++Kav+hfpkrvIK13PqOfeXpk7/Zv/adMpIr3Nnq9nGdSmJ+epBF6fVjwd0cRFDEtD1vqr6plvQka4Vkvd8L9hp4Yhv5k91CRG6Isj3HQqS+JxB18qQ+3B7QZdOsfi39DEtHfU5dAUINp52xPcdC5L+QV2G6aF8ISodL/xH0ehc35DQ09HocPcDdjQgb/pzUujyf/d+m28txj094Vnm72lJ7LWoIwjN2yCPNhuV4GEFiZ9fVVcRIwCkTjmbSz3clmHUTzpV2ev/6ao7HyGtAyFtGP3/+a+bjfxhTjXc7mu61eua9cl/7UMo/z8BdB2H8j+IOj8C6DoX0PUPlHe8h5zqHXc/77rZyA3Hn8/M+77J9+7zJ1KvaycTr8E7NPxo25leJHS9CNBF2N0O0PVZQFcB+Y5zCWazvt8SkkEXoWsTx09XYE+3gWTP30a8lo76EbreDegCXHFrqMBBYxJ8RkECh+D7dojnJojn28uS/SsqHV7TK7y5FuJHQ24Cgxpsb4Qyj3wLoyIMHoV4cRQOcR0HXe51eiQcemHxs//7Qmgh78e8qre1YQjSvorAhXIW2A2NxacrapPHxQjeuZ08mivNU/7ynfDkf66d3+byntMNi/HwxaVbM46be536VmOng9OLLwB0DaDxDwK6zkPjf7czheuB6JzKlybvu5f3436fK/nzyf95Ivnit454/VTCWI82lLWSvRWdvZe40LUt3qOLqjLsjnTNS773sQy69keDvTEKAhrt8HOLEjqaPnXcRpwA1t3Am/pPfQtdiNcOgJsjC+qVXh1oskzRJ9N+BUl9xx3tmk+bHa/MP9jWLYlCxxR1VIvTZaHDipL8XFVtXHQfUMQr4ncZ4V1PcfRlLcJZA92Pzw/N0SjMBGLv19m30Lsn5IHOfInpZCNAP1y/bUjwqcgXjnIBlOlni6CseeNt2ePl0VzLy/Ne/81Aw/9GPj6AYxPPrIrP5baCBg34+Xmk1pZV+E9H1ro7ATOJB58dp1353KgHofV0LrQ8tZ24MI4jFffI73hHNLzpxoX3RJoYh1Uouwwn9f2ahJ8P6OI0VxTQ9e6K5P/SlNVatp1zVfyOe/YMd6pCfDvpAsQPI025Qkvy/0C+c5SH6eOqVpbt9eTPlASo5C4TGn++N/jM38ad489Dxo/P3I2fl++M52zyXd9dff4IA9oQ6ctcT0N6d3qRI10XArr+jjxYy/hCzG+vfnkImu6zXkIy6DoUlepqKDMmiQ9VJP6JioS4JJx+d9CI24jXElC/QtfOBbXj4mq0xIU1iX2yIsFjC+qzi57Lo28rS/a2Jhr6eTTidcPlHn+JS6oyOIy8WgUQPBx59UHc/3cAsZcDLgCI9DM1Drq8OHGrm7ubkvllQzK0NbquIbk7fCsw51IIUw3YURnn/4Z7/qguGe5V+LuGs7R/Pu7pyQ2bhtXRc8symHPL1dbIl6eWJPc33P/f7rOaz3jMRv64/QdlEQ0Yp3GYf8krahL/UkWiF5U1fdGPliV+UUWSX61K+ns1nTLlogDCLetItYOablr57FC35m5uSPZqlJWfOXtM8jeunPXC64TPdwbPWu3YflST5FdQB1/ymBJfqSooZW9E3AguXtx4r4nihd915KoNsPxLQ+24MtdAiEv8o3gHn4n3cjPU7+h4RE8uq9uILMp2luXsF255w/nZPzs2dRrPXvfplnuunk8AYj7c1pL0j+uSvLyqOxdEP4F8f3dZYp9C3l9WleS3ce9fNdS9yAghj2ni9W4+9bxPt7z0In9yf2pKlunFe6PPk6Dtdep84XEqlXuFZv/ckhTOTXwN8bsUeX5xRWJQ4ssVSV9VkxzznSCGjsaU8h3PON9CecO9md/ZX6Cu+HVDEhdXnXY1iXzfBfn+1rKkv4O087mgnGi+Q3wG+duR7+zkMd697rPEZdB1BBrATSFUsAkUuuxfUTldVpPgUwoywAJC6CJ8eYb2vRp90+KqT6ErsAsA64mI18ZjkvxCXdK/rCN+Jbe3NyahZxTR4NW0R8pKc87jykqQFTgaqiwaXU4lEgIHU6MSOa4kaVRwBInQsYAuTi+iMvRDl9qdIBwdJUPlGwZ4BLcuSOiJBYm/uYLKGOf57jXu3jMVw0Fe0CM79yYM0EUDFHsX3k00zJqeXtfNVnx2gN88etupq+oSPBjPbnfce3hUQk8tSuLr9cdsfnpdv9hivCCWI7qkYIOauRGN3UVViZyE53ZIUQLbIj0boq6jbzZ6xh+BVjm/BTbHcz26KNE3lyT59ark7mTDhzARlj/8de7rF//H88nd1ZLY2WUJblvA8ytI7EyUlXtaalDNUTeFCuQ3G/P0tXgn3lOW0HMRP3ZSEBftBK8e1eMQ4/b4MR11jLyp5Ph3uhfvt5vWnnFC2LxX/q6mxD9QUee1wX0LEvR2BUB9ofa7tGPE9+DuEMo0ndIGnwRtBe1R1AUn3KRe24vJ5OUN0wc4yf0TAPmDmkTfWZLQ85GuJ+CebroGmOfMe+Y700d/bPTz9oqixD8F+GXnokFQQlhThQ633iFkxdCR896Z6HkVyf29qe5JaFul+YXPdBDLd1/j9+yiBLd34jeg+e4eme/4nWU/+iaAKdLDUTodkevVSXTzYLWs1bITfWNZpxGDB0K7QcjjAOvqndx839P93ct3fA7h+QS3Qd1yblXdtMzrDMAiyqAL0DXIbTyygK7P4yVDb5ovNXs/kRNKjl+ePCoA9HbVrcSeEF/a7obftHjqV+iiR3pCF8pQkt7FURkRsjiNpx7gUeFGTytL9m9o4ObDSz3DQ8XFkQ7uscg9/rzpzdjZqJDREObQq1ToYiPUDV1eGGwgi3hfzsD7wqlJvA+cmkz/GiAy11NtbCDub3c6PnQSykZTDW/xXDujAL2unY0YJhoTBQY0VgQS5hXTG3sH8uofKFPeSE2v6xdTjJMXL3caOXFeVUKHl3QLIj5XwiP31uSIvo7ybI4j94dE3TeAuk8Ny9HxpG1r8NCCRE4soRNalSynwrgJN/Pdu5f/3n5pHgI67mhKBPA2xD0mQ8g/bi31DwAzyzifL+peTt/G31uR4AEoe4AqzixwZahCl8YNnzfCkZ76uS/oExC//RG3gwBDZ5Yl86uGjDwAkPDi5RehiwCNss0p4Q2GcD06PoMZHFmfs4PBDjSFd2GIo7/oCKmiEM5nRylySnn90OXlB45078GRK7oXCQHaA/sgbDq65X6c6Ohouni/7XFke8L08XlwJ4IdkDYAX/goB/bopkTBwxf+uPv65YJQBh2jKOLM57zBADpWb+PoLKCLdRKvB3hl/oDODN790H6AQfqbY7lI40gY5M4KiOMA4xXG78gvxmsIUBjcH/B1VhmQ3NDn1ykPnhg+4kGjed4z8nJ0LpmXbFsRnyGEqWExz1mHoNOpe5T68n0IecHtsaJnANJ5j/moE/tABl2H4+HzRSR0fRrQVXAKeg69eB2Ofh0KKGhfDezZWLKiYgPPxpTwRRCj+D+/z3Y0jNczLIY527BWivoZuhi/LVG2vogeehGQczMqJLogYEODCpl7Hya/XutMm/QMezZ6dI36fuJoh44eoMENHwNg+k5d34HcXwFd6I33gi693ntnEL/0j+oSOqToTE+iVxr7ACpHTkfNVR4zHIBNFo02e8r04q+e2Z9XlMyv0ciy8ffO6752tmIjgrxiGulSYGAj5NUmyKsXIK+uRF7Rr1qvBn6x5eUF4p6vtjWusVPLzgIANqSAFl3McWBB7fm4t2bs7RV1ecHRw+hbKloetY5DnaONLssJ6rrg0wtoxCuSvtoZfVlv+WRckEccXYmcCejaDveO+qALYMAROK7cjZ4MINwRceT+lIhfEBBP0IuejvidhbgBdNkhYcc3dDjeI8aN4LQpyt7udLtSUqN43cKnuzzgO0d18vcBggDv9EkXeRnCOg5hAWoIb4MAAO4qEDyi6Pz/fIjH57lHQAPdGkxlpItT4d5uBaHnOKPG7JgMrUa+74F8PxJpe1lJt36KqwlLVYGTOxgwzcFDkfcEEYIZ3619kT6cn/pGTXL3AnrX17Hphi5AjELX2wFdAE8FUMQxfV1dIigbQ9sj35OIG+LJXQ8iL0S+n+yWC+Q9n0EYeRVkvqMtGsB7wN0XWJdFXo14oYxxl4R14sF85/TivYD+T1bx7iAfkY7I8SUJI1+YF2w/2XYGn458f66b356Ox31x5DPLM/ypjvQtMRl0HYbCzpeZ0PUpjnQ5D1vn5VHYaXCauqqmw7ZhFFCdMkKPRBtT2sHw5WWDz94LXxyCF6HJL/42kbrPI8x5YbJHxvuYJhfyrZ+hi9MjiS8ArFyj5eQ3a9q715WMgBdWhLkxVK5eXOcizghDHW5WW5L4OOKyH+LCxgANcfxcwNKdyCNADO1WghNBl5cmNzz25KMvRKXNuKOhDKHByt7kemF3zxkXh+nKvV/qSjSU3IibvV80XPELEV8aHvOdnO09eglhal4125L4KPKK/rjQ4eEIRfycio5+8bnOy71nK8aJU1r3ADC+VHNGLTmisonzjDitE35tSeJfqEqKNla3AKBwLvMzjw4mR/A4Dcnpo/gnAQ3PQh3H0TGmn+CQQZl4KRpagBLzR+vFifKBv/uhaxtARATv5Eko33c5Ps3SP23o9lM6wgSo5gbf0fPKkqJ9D/dCBHCz/HFv0NxtTcn+piHJr1QlcgogYFfEi3Xs1ogXrg+/FDD+B6SHCzu8+/vioXaBTB/Czf4RYeGY+AzSeAwaf45Aod4n3KevqksOeUCfbJk/NPWYRbhZvCNqFO5Poyfcg7/rbgW/a2g4AY7qcOoWdRHBKXQIQOuCiqR+WNc8Zpq4mEGN3ctIH9KqtnaAq+gZZe3Q6OIbju6OoEP2lIIkL3b9iPE9nCjf+Z8HXW8AdAG4NtiA0IV850jXWnS8kI+cwlR/c4gnYSv2fsTt+zVnD0qcp+WC+Y7PPD95GfL99RzddsvD45BngCY+P+Z7z4UtfI/WIgyUAY7W8Tx2NDllTXMKHfVCPRR9J/L9JyiPf3TO0XyncI3m06NuWesOfxnIoKsLulgR+c9lZUv7AS6357C9Tju+wekFBFCAhxK4lsP2HCLFy6KjU5yC5CbHFD+7/pB6yjsXwKAONDmaxiF1hrk1fieEdUOGabz6GbpQHjrQVWnLKjaQqJDYYATw3Fn5c1QifbUz2qXhzDbOXhiICytUbp48kEV5QvkKHlFQw9mR+9ErJXTd2pLgC1DZs5z1gi43LnxnaNNEg9vgIWi0UKnTLih1aVXyhEnvvl4cpiPvOjaUtZbEUCEH9kN80LgGn4y8QcOkPevJGvzZiGGih85RAU4NKbBwpDmJ9F2CXj1Xd/UjdDE+yBNO/SYvqkmAU1abO40a66bwAUU1ntfREpYtTteo+PkxcdqPoyHM4+ytTYlfgAbyqSgTKYSFziCnoMLPLqlBemfUpZfc+Ch0nQGw2gplLox3EmWKbjYIGRzx4FQTO69RgIbaMAFEVuNanX4cFz/UvRTfmfvQefgSyh43GWcdibLKhQ7qegXhrjPa6sZFp4S9cPE7t1uK0Dkqy+8A3svzqjIC2KBbA++eHfGZ+8PsFuJFYGCnaQPCBDvOSBtttOIfp30w4gXQZN468XDio7ZalHe//0PeV1pq88kRuaHN8X6xTkObEkRnSR2J0n6S13Snk+qGLqRNoeusEsAV+YtnGnl1UQY4jYm6iCOImWvxLNVPoJdehNERygO0CmWGgw7JL9fUllOBdwuEgXaO08dc2KJQ2vVe8rum0Q13I7kfnTufy4jHAyY/j3xHuX3smT8mXrtcgYsy6JoMujx531nhoGdDg0ICWPp7dfV7FHlHSUIo1MEjHRBjRbMBh3ghFrJe0jlz97OeR2iLOQ10CD2S8FvQKB+Ngs4XmSNehLlu2DA5WgLQlfqiA106igrgIbwTKHSVLKArchZgB/Gei9Eu7YGz4nuwrbZcwSPRyKCMD42Mae9We878/yGuXmquH7pc0TaEBu6RF6FiDyHPN0VjfEpRMn9C4wIgm3QUZDK51zAMXVp+qBNfes3nKicaXM8o3KnISxsqe9oJcXqDNkRDOyJtJxSclWXIxxmnbb6EuHAKjfY1HOEKHoU82xbxRl3BRQC68ADArW4P3DR21CMsSsEadZwauBNOTgU4DaNc0BYHoMPVZ+nfTQJeDAf51IEuAiDKSfTVgKtr6hL7RMXpZBwGkEC51NFWNOxaH68nbpS+N1+v6XQdp8rVqe9qdCIuxbs1kesV73p+xr3GOUdFPe13jprn+9t9fS/xHHZobiLM4F1wbSW58IpuYbgQg+/6ar4T3vkThev9B9F2Lns74PLzAOhn4J1kJz47ivfBGfHqlMPuMHpC130SeVdZUujMJT5akQFu+YW6MoH2iiNZvJfWkRPEzauHViFsuhPhaGBoH8SJ7dtOENKc/E7NMfrv9W7wO+P17/U4R8W144CZn7vDWmYy6OqGLk4v+s5dRywkPHJJKwojN+3M/r2lPR6+bOxxJj5YVWNcLg2OojfH+XL2oDvCixHDMcZ59DdD51a0MYx/pCqpy5zhXg5Hh09BxbUn4kagMOiaWEsBui5GBcXeKnp+7B06vX408JxiBOwEnlTQJdMdI9WZxtsr4ziqQfPzUYaYN4AqjhKwN91ZGTRV6PLCZtlvoFG4AGnbC8CIdA1tg8oXjT6X82u8mQfe+dMQ48v3KfaxigQOKKhdEVc+0Y1AZ59Kf1zmSgwTcWbDkPoxGnROgdDwGnAQPRe9eYJBdz70gbQOgnR05MUEHLwDfBd2KThb29zcVI/5466bLB3+35Ef3upHjuLQ9oe2gHSmS/uf3B0oHxw5676On1EGFLpoSM/pyc1wzctLWh8Gj0FH8hAABBpc3WQaYXTe0+6w/L95v6PMcrN2rvILHIy0boLnhGfFqb3MrQDMXu+Ne71TZ3dBV7dHepbd7ut7CefkSiirb0BZ3RXvAeFoU6QTwMXwc3RtgXPG1UGThev7jyOSnF7jlCPzi+8kXZZwlWH6t0ijB7z+8BjvDnShThlAJz44KpHXFCX6wZKETkA4bN8AXHk+O/++rxPES0HI/Y/gxXcz8Ql04A5G3nFqlu5lANZ09aHlpet6vZbCfxNDl1NnrANd/nCWoQy6pgpd/O5dz5e7S3wZ1IagBnEk7L6WZO9p6hAzjSxZgfmVpdBTYqHlakk6KmSFonYT9ItUbiuwdaALFV5P4DAtIehyYEcB4wGcA8gOHIRK27WVYMPExmhcJTQDsXzT0aBOx+yH8FFJ0oiVLhhYNtX1wQygS98bpDF9HToEr0blvgrxTo1quOrTiO/CdOPunY+GgEveOYqhIys7Ii6vAvTc65s6mm7Y09AqTp1ejvx6GvKLU/uoD+Kfraj/pM6IQNc1iynmCad36HSXnvJ1tAVlLfpGlKE/4FlwhIvnMt7Tibt3Lp8lOpac/qOxN4FLOwiAKIVsTinznO5r8RuhK/omQBdd7tD27+iiLhghqHODaUKb1pfeNVOJH87Rcg2x/uQUma40pEuP5xbVlYTaFnbHieK1mp4e0HWeB11rnfe3+9oe4ohb8nuAor0QDm248N4Q1unDThcc4F7TShvlO5fvZw75m/iCCzmc7t69INGz8Gzpxb07nvyu0IV8IXSx07ApOi1HFiT4VOhgXPt6lOW/oyz7R7j8YfSSFycKnUW+41FAOHdooP1ycL8xne2ZsKOI7wTZdaCLHul90LXOdctcBl1cvehB16fdguA7d0Lxf5/0pWZDpsIL7Bdfwh7i71zRw2kb+tbRF5/XI/z8fYAurjTZA3FDxWXQNYmWEnS5lTunhmg0Gn4JKkn6xUElFjgCjccPUYkB3rV8zDDu2ltGBUsP0LrqCw1l6HA0Cte4U0NeuNMd6eJnxJsdBBrnq6PVLdDoHV3QlVZ0V9Cz0ZtMCFOfFfIm+ZWaBOjDCNBDdxGERq5Y1Pd1PuSmTd/H+/HMAFmBp+L+nIrJAS4uqzp2eL5zF11enGmU/gM0/PsCuDYGVKOchQE3nPLygGvG8M7rILpj4DSUTukBbHSVN+pKruik3zcFJ//z5nX4zhHW6Bsfgy59B1C+uBJRHcy6z3Ta8XPDZ8eW0/XqzgfvPRc+JD4CqKjivadNUne4+K7xnA10uWEyzZyeD78S6aPRO6dLATXJr6GscgS56/xpy7sORy6uib4KbdROeMbbAnLQcWKHR1dsMj3eud3QFULaaC/MhV4AJK4KzN7edKYK/feYqng+8x1tZuJSvKMAOTXITyHfP4Y2E/FkO9adf9oxwG9s3wy6HpNBl99lBIe9URA6FcJ0CoN3PsXCR031evd8NUrENXwx2HCzN2fQNQUtIegaRuWktiOAF93fD/BCmy4CD+36dLXcndPreXfklh2ukEwDgmjDRRsMTtfR4JjGut55rOymbNPlC1/jjevoRiDAUSnm/0ZovE6vONfRGNZ/zWTCefouIp30Wh45GeHRlxKnRgCj2ZsaWmGvE4+5khumVx/ELwB0sT6gnd0wQBKwodOmvnMXVcwvPjccucNAlH7TOBKeQ8O/Gxr+r9Lu57Fz17l+OuL1FMtzoSXxN1YcA3jWR2jUkxcQSPG82Un07sUj4jcOujhquQWgfx8A4c8B/QCfzrn++01Rmn6Ul8z1TrnllCq9nLPc0ilpz/KCz3MFXfk2gO/HdccdB0f+kB+R15YkXwbseuf57z1TMQy8S5xSpPsGjS86AjTQZ6dnvdCFupDlgqsUU99Fh2i2ceI9kLdproJ8Gd5TvKN0S0HfXZ5biu78YznlszLoGi+DrkPx4mwIcZrkHPQIuOKEowGsbLwC4Zc/vLmWL3yDrmloCY50eeWJS7Oj6DUPcEqLo0bPRyXJIXuATaf89bpft3Ceno+wczR2fz0qRtyXDVLo6UVJsuL9P1+DxHOnC10+0e4k9kHHiSinM+jigavbdDXSBNesI57H/GqiIUP+qJd09M659yntR2gcraugel07F/LFk166o2c79mRcNRzYpqDGw2qg3XXuoolxwHNTg+s/NiXAFWUs95yKPR7P7V73uXnndl8/Q3G6i+4mOHLKxT9DATS2XAH3J4AGnl+nsXXjNw66uFn43gWJnAYop083L9xZxI/lnCM3ajeGupHvjkL6rY3e0I/vs4YuVxzlir2PCwJQVtFJ4nQ4XcDMqd2fFxbSQjct8beiY8Ypxm1xv5cAXm9EG4W4app4PuPdBV2DdMyaR5v2GtSH9yB9fE6ziR+vRRjcFYLOablZOG3HIq9z3EdMeA3iZtOL42XQtT8Kz+NQENAjo/1L7B1ldZBInyVs+LRQsOLHUa9jGPNVSHzhGnRNQ0sVulCu6DA1SW/xrFT5jHFu/K1ooKZbUXrhVRHexQiPjR3DW408AUhxyb4uB+d5FMv1TKDLvZZTDWyIuZ0Hpy+5vyQXhAw3ca3/XP+1vYQ400Er/eDRg/VABgAHCM1ch4qc+dTrmrmSGz82XrTFobNXGnqzPghsVJDUtwCq9T6aXvTyniOZX3OnYocR1wMLEv9wRUbor4rP1Tu3+/qZCOFwmpFbu3BF5OAg7plF438iOgccucIzGlcv8lxC15tRd9FsA8+T7ifodmCdzZdnKIUuvB+En8AWuAcgI/x8lJnfNhwzje5rEK/1Qtd63jWmkSM3BBumnbBH1z6Rl+LdojE5AKkzOzJX4r3/BeAF1IVoa4h8DxyCuuQHyHe8f/oO8zy+JwpdyHeuXgQUD243qjsLJD+PegfnaufFC3Mm4rXII3a2Eh9A/cIV90g/V2tmrsG7imfbKXv+axA3g67xMuhCj4CepwcJN9s7vezws4sSf3tFPSfTB4waRxLAeD0LiSd/2HMgHY7lkTLomrqWKnSxDD3cdhwXHo9eO0em0DsNP88ZNep5n8mEMOnYkUv9dXuPzdHgseK9pPaYnyv3PH6e9vSiT2rse29LnVaq3RgaP67G5JRgp3Gd4NqOGJ9/Ad6+jQoZ75y+h6s4hYKG8L5pQudM5IbNxoJ2dHTCGngK0sLpRdp00aas2n/QxbwhZBG62IjR03zqR+5oS6/rZiOEqa4pKoD5i2pqSD+4JRp/2tyxXLV9DboXP0IXFwEB/DllTs/ktF/ULXvmIo68RwGNPxpudioIUKyz6eZCy1T3+bjnbKGL4fIdoo+7oQPwrvB92W5MYu9GB4l2fxxh4z3mUrgv903M8p1+Dd5pbk+Ezlnys8j3Eu7JfGdd0g1dSBt9ctE3F73Q813VNm82Yt4gj7STSJMIlDvas4WQl+nvI98f4v/ueb5rCOUGXeNl0LUvXtpNXeiiI0Du+YXKjMt0w8eh9/7OsiTRq6QbBzqKo/NG9SjMgjzdwsLzu+X7vwNclEHX1LUUocu7DpUOV4KxAWODRtE/VezdZZ12m3JDinDYANKRoo7WcFcDTpmf5UyZj6vceOT5M4Uu77cH1+jUCl070PkqR724wfJI23fOROL/gsaT05TvqDjbItFYmIsJftpAA4f/F6hC5vvGVV3ca5CrvXQ7Ftp4ci9WNm48bwHisV4xDsiT7F0tCb8dsJtD4zoA4HgxYPeWhjZuHaDvdf1M5N6TIyvshOp+mNwHEeUrfk5V96rtNP7uubp6kX66tkX8AF2RV+GdvLM5N/Fz78Etj+ipnnCsI13PRLm5Co1/r7Dx25Sgy/9edl2vo8gET06D0zkr0hY4AuX984AH/M7yowtJ6EtrroR2ZjXCpfsPbtekqzXp0PW9KJdoizp2VFQHugBnrnPU6JkoF39FJwj/EX56pm2q8vKAI+mfdka6BrcCdD2noCNxjGtnJN13jUHXujLo8qCLjvbYgPMI0GEDpEv5UUi4eoRbH8Q/UJb05TXJ/qGpvXwdAWPjwJ69ho2XgGGzIEHag/bf23tBKF9c9Bxeg+MqhLH6ERRuHUVwoYvOUQ26JtZShS6vDKCCZcWqTkwJ/hujMtu/KJkb6loWJm30+TtEY9XcnxsSfSkq3SwqNpZh5E3qW+jpEoK678uyOVvowpENVuhI3JPAiPwPHVuS/N8dlwBemV5HXriIU+oXaASfg3RzmTtAJ/o+PD/en9f2uvd8iPeRtZK4EtB1JKACIMOOV/zjiAtH3Lxzuq9baLlxyPytKaFTkWdpxHMIefZyxBNgrUbkvrplrqT1GMLM3NSQ4EuRP9s4wMI9FYf/0QVTOLfjHHVLnBee4Lwe95mS3HvoFOtX0fhzinUV3pdnoiG/DI1/r1EdXDOrkS7GGWWV5TL+oaqzQTQ650He88KKs2XQLWgT8A6r/jRHYli3tiT9Q7zXnK7dakwGAqMSf2cF75jPeN2NX2eky/NIr3svNvQ8XbzTK21TFfOG0PUAYPdrNd0NgM9XoetbDnTle0AX42bQNV4GXS50qXdjrxFHQ0lx/zVt0Pnb5hAahcDGBZ2y4VJ/7h+VuKQqqWvqaLwaur8YN1nlyIUa4LL3gxed92VvUCtFiEdtSAlr/B/ncVRD/XuhAsje1tA9sTh0Oy5O3mfTeC3lkS732nxrDcpjRQJchp5yymP8QwAggr2XhgnSouCOspT4ugMNtI2iJ/HI28qSpTNEXue/lp9Z2c0SuvS+D+K+6Pmq6wJ2UB43Julvu7ZQk1Wo+I+jJ/EPViRIX2WbIp+2LzibGK9x/p/w2rmUm0Z6pE9fjQb5GDTIHFHYdlTCry/q3nB8R7XRXoj4TCTcW+EHdQWno2lXxGk+OuWMnVkZP1oz1/FkeLg3R0xDr8N9N0f+0NP8q1BWukewcF4HurZyoIse6XNzDV3c3JsjXa5dG6GLdmN5QhefVdc1cwJd97R02yDuOMJtiLiNF7eDI3wFj55HPb0ggcMg1G8DoVG1O87fMRF0+Ua6fNCl5/RK21TFvEEbxg5i6pvO6s31QZeay+C+tnpxvAy6XOjSEa7uxpygw214eOQUH5cIbw/xhWNjugteCDSswX2KEjykKOHDAWIvLEvsLRW1uaBNCP23JK8AmP20plthENBoe5D6YU2S38R/qDh4Hhvc6CvKGgZ3naf3cN5jnTiZ1tVShi6vTKKxSF+PxnRfNAgbIy2AoNBeBd0Qd8KpNu9aHNkLV8/k9M3D1XebojLkJsW6v9pj53au42+zsOny/qN/Hhow0/O9LlXfDJX9W11P1d6ogz8M7zPygFNiCjl07LkH7v0aXMcVeOyMeOcvhJgOQFfmFsAC976jeQHKVXCbMcmggVG/SGhwxqVjocV7Mw5o3DK/bOgm5TrihGcdo9NMAMG8Q9dtgC6AKL3Te9C1zrQhzuse6Vow6PrKLKHL/176xd9RznWki9AVRPlg3cx3hp1xet7PzaeQRtqu4V4bDE0GXe7qRT90/c2BrrmaXuxAF7eHcqErOQl0mZ+udWXQNRl0eeILRvjilI13Hhs3bv/AKchNRmWAYaCXTyjjLv20c+HGwFxBQjsRemQOPcfVs6FnQEdwJ3r8fzAA6wA00BzloM8wTndyRSVBojsupnW11Ee6XHE3AtpuBHYvOM9/UzQK56NBJYj0ON8ToYwuIYL74zruSYfGIPoyVLhoJAhzWrH5r2Fc+dtsoIvCfxzB5Z6R8XMrTnndFunFe0Lj+J7AB+kI2Zo1ag+jHvNHRvV9SX69isp7/LkLJqQjV25J7L1Ih7fXKcCCK7U4ej3pSMhCyQUH2pcGX+LAD0c0o6ehjNyFMj8XUDOJuEovdBKeF+1eCVOLDV3e9OJcQddE8WKcCV0AW24bpNC1A8r5AWMSflZRoieU1Gt/9IXzpbJEXgIhv7kNE/dtVYekhHDGzY1f9/TiQkPXsNl0TUkGXVOBrm6xQqbQ2Ot1aOyH9ob2hGiTw73K0AvlSjQumaaNDQ2N/eJv+p8nFGB6JR9kGAyLgMd79Lq/abyWCXSxYUj9Eo3C89AooEwQYjh1wT0ZR1CpaZq600P7v7tbumUOyyKhK7hPQVJX1Zzpbf+5nhgG7jWb1Yue9F1CQ8dVXTrlhd44l9Krk1dObfaoVNWr999bEkYDomWci1aeX5IsGvD1TaXOl5j3w4+2tQFhB4m+uviOhl9RkvS1C+C+Yopi/mT+2pTwyYgjV6gOoXGlTdff5ghqeol5g3AzfyTsoUyzbkuPSez1FckDWMbZkuHcBYEuv03XQkAXoRydn/iHcc8Uyix96j0L8PAp16brT815FX2iUVmAFe19O6uRGWfGbwGhK90FXd70Yi9DesbNoGu8DLq6DelnIw/GAF7s7Ss8UXRUh/sM7eceKf7mgRq9SrPBJMQZaE1fSx26eC2Fa3XU6F0VZxobaaOdVOIDFRlGRTvONsMry822ZL5fl8BwwdmAGsAfORF5wNGx/+B837kd8Tsqu7mALv0f8VankedV1J6M71MYAEZ/d2rY7DWCbli0U0tfUUelXZCB5KgEDi5I/CKkkb1l79xFEO/NfVJjp5Z11Z3acu6HBuL8qm70vU6jstDivRnHuwDZbwPUpNCBQ+PKaeXcLWhcPXCYyzgiLLqEoAE1V5XSvmhoezwzlLX42Wg46R3df1/Eb9lNL/KezAPck9vgcJRLDenpGBX3HEHe0CZQHbMugHSrI6bHy0fGuwNd604v0gRgrgzpu6EraNOL05ZB11xCl18egE1VvcIwTU3LZKRLw4C4xU7oBDQMBJgcXQIAYDxHlG4lpVN0OHIlG22ouMhjCOdzOjt+KSABjc+EaefvCGfuoAuV69q2JK8E/AFSNCw8j/h7KgqR/J/ndeJMP05nI84ZPDc0furY8jeuwe9U7jkf4jPB/YdrgAs8qwBNB1CeOHIYoZ+pXzecRm8x4uaJ98Zz47Rx7P0VCaxy8i/0rKKkfjYDv25TkVumWXZTn0W+0LYIwMH99wggdFPSaWy9+C23kS73+jzAglsADR3ovNdD9Cl3BuABMKZ5xPfTS998yx8/t+xONNI1n9DlH+nq3vfSoKu3DLpc6JrW9KKpv7ScoAvXq/PLD7i2Izvj+u0BUu9BJcXrvcaBjQC3z/kqGsLtkH5OaacBTS8pq0H4+hoRXj8n0OUJaaKhdfStqPRpl0hv1ceXJP0rwArzBP9rw4X3jjYhQaRJR+a2H1M7Kj4zhbNeYS+EvHRy6vMmpOO1JRncBOngogQ8x9hJiCNtu5gOnMcGZZ0w5lu8J/OwDsD9es3ZW3MjgDZHCj8E0PamnHpdO1Pxnnh+nPqNnVNxFktk0diiU5CiA183Pzrn4v7LDrogXq9TrDc0JYy0873mFluc2s2i40Mg1zLhl3d9r8/+37q/+8/p/t3/3RPztANdCzvS5Yeubpsug67eMugy6Fr6Wk7QxcodFRin5mhkTnsnupCIEGB+S0eHj53HJfzcPmcwMapG1cG9UZl9CvehAftkAOPdZ66gyw2P04apK+oSwLOg76TgAYCBjwMG7ncqYE5T0eA7/m403qh8BwEMdIui25rQr1evsBdSbjqGmY7vAmZ3dkft6LR136IkLkLjUkXjwoad6ZlK3sxUvcL24vcgGv8/NCTwZMQPz0z3XnyBYxPXuW6u4ob7EVZSgJXQi9Ggb4jnFhmV2JvokLUL7t34LTtDep94bvw8vHNb4b6rCR0ov9+pTfxOL4R47w50Ld5Il00vTk0GXfM1vWhaOC0j6NKyiSMr99j7ys4UXB4Asz8A5oMAGJRbeqln5Zf8ds3ZPocraIOoZE9Br/smNIQIozP60EuMKyu7OYauYTRqWRrIo3LV6RfASuQEVPy3IU5Is7rF+CkaPRrcc5FJckztwLJokBUSp3Kv+ZSbDi4M4KhW5DTUD9xbcgenjIWOKOom2HyOOnI31fyZK3nxwzFXbCN+ABuANp8/F0/QaaX6OJureCEMThnppst4ToE9cC++bxuNSfIzKIu+qWPvfMZvydh0IW5cjajQNdl7Sbn3pf/F9A9dr/Rcqb5vQaJvLKtnfp1a9M7tvn4+xftOAl0LZUjfDV2a77gvn7tB12My6DLoWvpaLtBFeWV0LYDomroEtkAYTNumYxI+sCSZm9F4oWHhisXYWytO5c88GME9voDKrz7Fe7Cym8vpRS/e/1oj8S8g7fsVZIBOXndHY3g5Gmj8Tnup+EfQUPJ5cck9/qNBPdO63jgvsBQQb27oZs26RRE3OE4Dbp6HOHOBQANxnm4eTVHqVJafe4Xr/UaAQOPPjcY5DUpHndzjMIfnyec6J40Zrtd8uBKg8gzkA31GoTyHnlt0bNwecePq3YdHfO9r6CL0E7oGELfgDKDrkbY6wQ69GO8Mbf44vftkFzzud8+bTfr8Yrx7/d4txhvxn2h6cdwCnJmKaZoBdPG+Bl3jZdBl0LX0tZygyxPO4fl0hMiVsGzwAzuisvocR7vWSBINbuhoNB70Pr85GtxTAGRocKfUo2Vc2YDMB3Th/hn6czoYcdsYcSMMnFCSfAmV9Q0NCb+opF61afgffRsaBbqV6A6rT0Tg4H5+zOeB1Ygz6graUNHHXuJLeJ6uAbVu+MxrppNfnng+nxmPbIBQPjiaqW4BCHZe2P7z3c/01RQ5tazlno6bAygH0Xej/N/p5KkC0VTKg19uGvj+rEb66XAz/FQAFOGeDqJXoSxfhrSXETfvfP+1uGdf23QBukIo79OGLor3ZljoQKSuqEqQI3+uaUro0KLkUL5X4T+te2aTTvc6LVdID7+rT67u8zzxXh3o6j3StVjTi6wP1ple3M6gq+cfy1LuwzXoWmZajtAFccsX7l4QotPTDVFZ7Q6AOb4o6R/XJXo6yu5+LLtI94aoxFDx0cB6SpUY/+d58wFdUL6Nd4vTUXinaFTPFZXpb9QldgF+e0pBBhIASPR2099DZd3s04qX8UG8hvHMkl+tSfDZaDD4DFjekE/BpxTVsDz7p4Y2wnoNG0YvLZ66w+yS1kW8huXiQQALgCn2qapEjitL4mN4pkWU5V4NLq7lvpwZjtxwNwDAYIBx2x4g8SHEi1O6tJNjuO75qu5wPHn/My5sXNe2JXd9QyIvKzlTrNxbcwe8Xye5e2sCYDrX+cPA9X1t0+WNdA2izo/6bLr87yXv4ckfjiuCBKdcaU8ZoF9GruZEWY+ejI7PtSgPKP+Mo95zknDGyX8erluNz3T7QnuxzK+c0eAJwYvxRvwXw5B+MpcR+hn37TXSlfwkoGus693n0X/9MpVBl0HX0tdygy6vnOKYL7cUsNjQc5qLoMWGMHgYwqYvLzSE4eeVdI9FbQhZiXWH1y2Gz/PmEroo93zanNHFRfgYhJtBg7QPwn1BSY2OeY+hLRHnE4vaOHO6ZkpxXmh5aYdyaGBpL6VOU7lSdFvUFzsDvA4oSPTlJYUy5qNCrwcjFNMFsfFlnfMYYDnyRkQ4ssURP061xs4AmB6F++DZBg8uSoILEdiIMy5euBS+cyQrX22pgX/wcFxDT/H0H3VgQWLvLKOxBgAQan3XevHwyx+nkYfReI4hLt8D2L8I9SN9CG7tlrMTARV01IuGd1xcPPE+CKPfpxdD6Liw8edKTHXiC9BVb/5evHiuJ384fnEUEDAUeZ07CkgXI/ujnCOtycvrahPIxSH6jN2wNK+75M9/Pk+118TzzgHm4++v6CgrHR+nr3D8gXVfr2KeKnT13gZoMaGrp00X6rE4N7bn1lVevrh5oPKuX6Yy6DLoWvpariNdECvh1A/Q4LMhzqLCojNdwhZ72Jug0sM9uL/nhBVyLzGurNzmGroonM/phDwqVAIEAUufERomur/gZsk0yE58ETCB3nuvhqhvhLR4DThXLXKVZejIogT2wnNFfukKto2RnqMBX29DY4tGP/OHpkIap780fYAYnWZhGHjunNLV3wFowziPW+ukvl6X+NkVCT8bz4EN+KaQGu8XJPJ6PA+A9zpxo9xws3he3HQ8sBviRajd0Bl5iZxc0qlAeqsnpKhdnVv2ND6eGK/70WiWUB5+31Ajee6lyalEwp/uGABQSX0PDT8a13Xi4YllBfnVl9DFI/5L/xLP8KVo/GOo8+nygYtPkOZVhGWeRxEg8PyoCeOKe9BFB+3duAUQQWJwG+QVRDiPn1+V7A2A3jHkO9oadi68/PbC6OQ/74FyMdLAPe9sShrve/QMtE0oZ7r5/S4FBTCdbvZd3xHzVKGr/0a6OtB1S0NXvw7EUSZ2RHl6ZVEy16PT9dBjecB3g3UkXeHotGr3c1wmMugy6Fr66jPoyhO63oNGcFc0gogb/WhNG7oYHsXw0KjGTgXArEYaUU45+qDwxRGjpxYlj0Z1NcLUNE8lvTyHjYYfupiPAIno62YJXZA2emhkWBkHCYucmuIODXg+g4hz6ClFhQ0PAGZyjwWTGzdNExqC3M0N9Vgf3AnPln68mCY0uFw0MAjgCb8aDe4nKpL6GgDsmoa69SCEsUzSqWnulqZOQXHaiPtqht9UApSjcQ3gehqqA6bpB4vTr9Ezy5K5CQ03RwN75RF+8xrufKElyUtQ5rZGvPguUIC3AMRwGB9uV8NRLC5o4AhYDuCXw+fsvYC/3zR0L8zwSxEfAjJXl9KWEFDDkaE0gFOBi1NcjMsE8elA15kAEY6QEbpOmh/oSnF6EY0/3ZPQQeyE0OVdx8b/ZsTtFDT+QaQPYBsEMHMrn9wdAFOCVgXP6I8An6/XJHUlYMKFpXXCYzr4Lq8B9P6yIdFXIr0bOfnOzhA3fg+/ArD0qapkftHQPMlVETbAiSNZ6lSWkMV7lvEc8B7STUnsvShbRxackTju7/s4wDOgLo2yxJGzyeKSoX+5k8u6NVQHum6fB5uubwG6AORDWwO6njs5dFH01p/9S0O31BrAs9KdWfCuxD8BMEU9wBHiXBFl8Nam2kqmrqkr0HY7W10uMugy6Fr66jfoQu+Wzk25nJxTDlyll6Lh9TRHujpCZcsKOXQMGmf0LrltDkdE1Pv8hVXJc4/F6aST57JhehgNLqAg+CJAl7tFVfS02UOXEz4q2tuaEnt7WbcG4hTjEDfjxnsW+yh67ez9+8/3X9/PwrPjlkdsaMIvQUMbQtkjMG2DI0e/tkGjksEzzxX0uQe5sT2gNvhC6PkQGlS6d+DoJ8/j9OsgR7fQgBG6OJoZeQ0g54q65O9FHnkQMVEe4Xfmo45W0Z3BT+sSYby2QJju/p2DWcQHABQ8vKAjDNEzShI7tyLRd5UlAugLvQTxYpliQ8p00DfcMK4FcNFuiRts83lpmZnsWelzR/7cCbDBc+d7OZRAGICu/N1zb0ifuhzvGG0aEV/mcQJgOSF04b46AstVv++tyAZczIEyOcgt2/A8OPUdPrUk4VchL/BeBZ5QkMhLy/qO9AQdinGBuOF8/nYAA2CbMK776m4MccSReb8Xwj+uqLAXPacsiQuqkgBwx85F/gOIw68vSfBZuCchldeyHBBOAKyxN5cl+0fkP0dIJ8p/5imhC0BJwCaoDXBPzrMeg65p1znd4n096LoS0MWRWNS9BPIkOhA9ocu7Dr8Pl1sSfz8gmaOxu/ny/VjkC9IffjXKIeu3rZDmsyuSX4M6aLF3gJgnGXS50GXOUZew+g267kPF/saKDKDCHUAFOoDGT52WcsXXdCtAhovKll6vuZJxIHqf+rjiMD1XAmY4hcEwp5NON0xuiJ27saUNBeOpGzw/q6RTg3qOp15hTCZegwqaPfnklx2P+drA4R6088r8vK6GwjMKe7HFOAOC2ejTO3nywppE0WAEn4LGhLASwbMZQF5y5Is2VjuibiF80DYKZXXwCfiNftXw/Lhv4uAAfqP9Fqco0egnLqpKDo2nuv6gIXyvOEwkxI1wREhK0Bj/Fa4RPMGQIzvIf53u3YkgAHH0ka4wNoMYXxqXb4TfDwFwABCSF9ckC5jg1KOme33PjP+hXHE6kyDBFZ8DANLoqwBdALE5hS50YJKXVWVwhO/CfRJEnONfRAdkkpEu1glMS+aXDYmgo8FFHjpCCQ0BMnUHAqR/II3PeJZRAI9OD3eH5RfjA+VpCzfqjAKxo8HNsDmqq0COZz3I3QM2d/P+SQAsSKeCCd+MB98/PqMsQG0P5P/rUBZQZ3D0R/O/1709edCF8sjrWEdsMHCfhN9SQqdq7v10cTcE7pnKvCOsJ9GhHOEo6GQjUyjLmu+vRPyY58xjppnbSiH9mu8cXUVZjZ+JTtla1OE20rUM5D5Ag65lpn6ALor3QkXB/QYTn3Ycl4aejd4cQIOe2tXQ2pue6XV9L/FcNjIcxaBNEXqGQYTHY+ILaGRqACSG2evaieSGScP7/O0tNQYPIp5coae9zDGE6T/Xf+1UxGtYQa/laAR9jeHZsGcLuIi/HeH/E89nuvnQL/LizPwjfKHxz1zfULhk2iIvRI/9WXhGR6BhPQjp5jQwRwU2htjI7o18OBB5fbhTLnh+7N0VSV5Oe7CGwpzas3Tfb6pivB5qS47G8NcCvi4gfJUVdoMHuY0945ODOEqE94ZgFkJ8IsciLqeXUa7cuHAqjPf3IGYqccG5NJDmaGbwOKTzmQVJfALlFB2RVXMxcuHGh/ZN6R/VJHhCUQIAnMjpJUl9v+aM+Hnx7SVcz+nVzE/qaqDODbyZL9z9gQsjCM98b6NnlJ2dEv49BejCUe/JeLXbOmXG0R+ubg2zPByNvN8fec8dDtwRToUwQFkAHR6OiHIvy9BzSmpjFv9MVXefYNma0k4NjAPeJ92h4mPId+R58BkFiX2uItm7m2rTNSfQxfShbKWvqevIXPAY5PtpJXU4qzZpk73TuFbt8K5CvqM8hp6GPAEoM8/5PgTwvrBei+K/9PfQkQTE8pqeYS1xGXTZ9OLSV79AF+XCBqfW6O4h/YuapK+uq00Lh+C1IplOnHAuK3RWmjSozlxXl9TVCBPH3D20i3KnHXpdux5pA4XGK/NbhIl4UlwBxf0Re50/ZTF9/1uLhr8tiY9VZSiK5wPwImRwJIAjbDONc1+JaUA69fng2XKJP2El/ZMawKUi8Q9UJPbWskReDug5siSR15UlelZZG8bEV6v6HDt2Vl7ZcMPTPJxJ2eU1Go5bZgDr2VsRp5/XJXFJVacVY6dXJPo0xOcExAWQFf8woO+bVcle11DbJk5Tahw4MuWF2X2fiYTr6DIk88eGlqf0T5HGW9CI4rdOeHOhB5HfeKeYh8mf4T6/wfvgboM0KSQxXTjSZih7M2D5KsDyZVWJX4RncnFVYUnfVwAM7d6mXE69POL5EA3ECb4cdUz9CHmPDhK3v4qeCh2DMnEcysJrkf/vQDnBO5L8Lu77y4bWGwq7DGeq+eU+c3bAaAOYQp6nAKQZPHc1SmdY03mGveTeY+RRAj3y/ee4B/KeTnJpq8jfp5JXHLXjDhXJK5HvKI/xzyPfL61K4lsATZRR/qflr8e1y0UGXQZdS1/9BF24H0dxVouzaseTDpXPtvLD9ePCnEIltz7RASNtXbww+bnT6Pc4f0pyr82gt87pBE6b0CFq9Gz0vG/nKNccjHj0i9x0OI0knz3ykCMLaNTzjZaCch6NVO5eNKZFqALAYqPC1XJufnfKhhfebPPGF4b3fHWU6UF8p9Ey3g86X6WvKY7Kanwe9c7DdbONi+aFkzYtUwiT78Ss0+UX74E0effQMkX1OreH+Lw0vfxMeymu3qS/NcSxkw+Mc9d165WXRo2fExbLA52mcoSNBuOa9/e1JFfAserk/6r/85UF777TyS+ei3syH7x3WZ854zGX+U4hTO8eTt47+dnz3G7xPFzD8zlVyXzXY6f8uXHude0ykUGXC1008O3ZoJv6X/0EXZ54Xw7pe5qreMx1mAzDH1fve69zpyJcqw1su+24MdivoIbidGeQ+kZNhpvudCjv1ev6pSp/PuKodQwbj+4GhI0Nxc/+PPefM9fy4sbPE8Wp+7zZykvbfKbPi+9M7+Nez7TrM/HyxQvXf+5M5A9nXL4TDl1AxG+drZRme19euxD5Ts3mPu75Xp533gf+Pp9x7hMZdJlN19JXP0IX5VUicxmH+Q5zNuG613OJeO7WpkROKjsr6FbhubyhpO4SOvZKs7lPP2s6eTidc2ej6cSn1+8zkZe2+U7fbO4z33GjJrpHr9/nIj4Mw1Ov/+dKs7nPRNfMd5z7RAZdNr249NWv0LVS9ZCzajH49KKuUKIhffIrVTWk1d7+SnkmTOdE6nX+QqhXXKhe564kLUQedOe5p17nrhStwDww6DLoWvoy6Fp8+fI5N9pUT+r0x8Ml8vSmr0vf6U+M0OW/zmQymVaQDLoMupa+DLr6RjQQT19dl+C+RfW7Q7cJ0Y87zlB7nW8ymUwrSQZdBl1LXwZdfSH6dOLWMpGzyzJ0YEG3/AgeUHQcuC53Wy6TyWSaggy6zJB+6cuga3GFPNb8fmCNpH/fkMABBbxTYxLYHc8DAKbL4n3nrnO9yWQyrRAZdBl0LX0ZdC2uXOgaLrZ002R6OufWJ+FnFXXT4FV+D+smk8m0gmXQZdC19GXQtXjy3qmHHWeooecXZTCJ9ykzKrFTypK/o6lOD+05mEwmk0FXB7rUOSpXW/Vq1E39LYOuxRPzF1DFfSWTX6zpnnJUcJ+CpL7gbIRLr+g9rzWZTKYVJoMuz5CeO+4Tugy8lp4MuhZV9ChN6Mr8rqH7+yUuq+p+c7m7fbZcJpPJZDLoGje9+ERfQ25aOjLoWnQNPwLhnRqpQNW2s58f/XL1ONdkMplWqgy6CF2buNBF7e7KRryWjgy6+kP/dQzqNe/NCarJZDKtI4Ou/dFgbzwqg9uPSeiYogSPKsjQHvgN3xW+ejXypv6SQVd/iHntV69zTCaTaQXLoOsQNNir0GCnxyT+3rLEzilL8JCCDI6MamNudl5LQAZdJpPJZFoCMuh6ypgMbArlxiTx5Ypkb2xK4oNVCeyI36IAL4527QnZqFf/yqDLZDKZTEtABl1HoMHeBAJ0xT9fkeF7W5L/W0tSn69J5LiiDK3GfxsCvnZAow74opftzghYLwAwLbwMukwmk8m0BGTQdTga7MdBWUDXpwFdhbaseniN5Edbkv5JXWKnliX0jKIEdkajvjH0uFGngSd00fCeriY8w/u5AjGEM2hgN3V50LW3QZfJZDKZ+lcGXYehwQZMEboSnwJ0jQG63JVXXPKevaMpqW/UJHYy4Gt/wNcuBUAWtAOueTxEg3sCGQGJ8OWNhPnlAVkvdZ/rXj/YCy5MvcX82hFHgy6TyWQy9bEMurqgKw/o8s6l00d62yZ85e9tSfqahsQuqEr4pJIEdy3K0IZo6Dn6tQ1EH1+EKEIAP0OBXRAujpMK5/C8IYrXujA2uPOo+Q2bqnzQFXlrWfLl1jrP3GQymUymxZZB1yTQ5Ynwpdc8iuP9bcn+oyWZX9UldXlN4u+vSPjFJQlw9CuDcIY8jTqKQmko10P8PQIFIPd8hhF4YkGCRwPq9nOhwuBrcnGEcHvkG/Irek5Zhptt53l5z9H7bDKZTCbTIsqgazLo8q7r1iNtWQX4Gqm3JX83AOyGpqR/BAj7Rl2Sn3NALPbmskRfXZLwi4oSeh4g6tkFCUHeUXVsQcInFiXy8pLE3liW+Acqkry0pmGlf9SQMK6n8b6O4nijaKZ1pPtmbofjgQWJfbCC59PjmZlMJpPJtMgy6PJD14VThC6/522cN/xwW4YfgNYCwqpt3XMud2tTMtc3JH0d9HMA2U8AUpB31M8/w/E66HcNyd7SlNw9Ld3DbgRAl7uvJdE3lR+DLo7m9ACOFStCKO3f6M5jL+TR48YkdFRRkt+smTd0k8lkMvWlDLq4etGFruSnqrp60X9uT/E/T/i+6n84drTWOXJKcgqNv05d8jxXq3D9avyeRzyipwO66B1/J4CFQZcjF7a4upP2cIPb4Tu1a0FiZ1Ukd1vTyf/Jnp/JZDKZTIsggy6fy4jEZ6qSLwK6CEA+qFqvvHP96nXe+uRexxG04fsAXacZdKncxQWULj7gZ/yuwLV6TIJbALjeWZHszQAu2t15z8+ftyaTyWQyLbIMuji9uBEa78yYRD9c1mm9EcH/HC3xrlmoBtx3n+FRgy5KndHu5Wpn5MXqURmIjOqK0fALSzolnPlVQ4Y5LYv802drMplMJlMfyqCLG15vgkYcYBM8vCDxC9CI39SU4ZY7zeibLuwAmA+O5lS+cFcsdHEUC2lV43g6nt1xVHRDcsAW3WqEXlCU2DkVSX6tJpkbGpIvtnRF6ci/ffloMplMJlMfyqBrHxe62MA/EeB1YEEiryhL4gI06tfU1bhdAexRXOPaXXXkD3cieedMRe75jF/+vrZETl0h0EXQ4ogWnwHTSYezGwK0NgJ87VGQ0DOLEj2pLPEPVyX947pkb2/qgoPhh9ypYP+zMJlMJpOpT2XQ5UEXR1ZoM8TPWwG+9gd8cfrqXRVJfRMN/Y1NyY0CwJpo6B9Eg0/bIX/YcyiFrgKga7kb0rujWiqkUb374xjA78HdChI+tCSxtyL/v4H8vwmgxVGth9x88kYf+Xm6cGsymUwm0yLIoGtfNPabjsogR1kIAYQvjrpsg99pOxQBABxU1FGnxPlVSV8BAPhDw3HvUGtLfi1HXBAeR8J84Q/j83SgTK/hZ1y3+hFn78dlCV3MY4qfXY/8g9xG6fHI600BXHsBdl8L2L24Ktnf1wGfLRlB/nJVJ0GrsyKUee3mt8lkMplMS0EGXYCuIUCX2hD5wYCQQ/jC74MAgsE8oCAKKBguqD+oyJsAYRdWAGE1yfymIfk7AWEcieFI2P1tWfUAQIFOOv8LWJBJBJjI/xtxehiiny+AXO7elmR+XpfwCcUOnHRAZSmL+bmPqycgX5Gn6oU/OaZpjZ+P/LwaeflPgNYjyEc8J90HkzLIMplMJtMSl0GXN9Llhy7KAy9vhImjTdzkGrCgv+FzYNsxCT4BELZ7UcLHltSvVuzcssQ/VpHEJyuS/HJNUlfVJfXThqR+3pD0rxqS+SP0e3y+Fr/9DPoJ9M2aJD5fkfhHcf07yuqhPrRnUQL++CxFIQ8HPVstjtgRtFLIa4gwGzquKLG3A7S+7I4ecvoWz8U8yptMJpNpOcqgayLo8ssb9aL4mSNPj4e2wLWbO0e6MwgALDhipjZJODe0P4DsiKKEjixJ+GnQ0SWJPBd6Nj4/A2CF30JH4v+DixLcu+BcTw/ruMfgVjjSE32v+PSzCKvMS0IW07Ed8pZ2chsibdvRa3xBYq8qAUqrCqPZ2wBaDYDWw87IlhnGm0wmk2m5yqBrKtDVLW8UzIULPXJUhyNhDGsY4tSZJ37v/s373f99I2hrhEFbJwIe79Pr/v0mLz/cOHPbokFA6eA2zvfQvkUJP7UksTeUJXVFTfK3NGS4CtjiiJbaaq11vPr7npHJZDKZTMtNBl0zga5uudDhn0rriCNXfvX6z/vMI+KxJICL8fOE7wRF7z+FrY3HJLh9USInlyT1tZpkb21KvkFbrTWymnZu3c5nDbZMJpPJtMxl0NXLkN60Xml+7Q3xuC1AKzMqAwHk464FBa3El6qS/W1DRqoArYeR3wQtSPOejkwNskwmk8m0wmTQZdA1NXFEiyNwzCccdUUnp0fp5mG/goRfUZTY+7iasy65vzRluOas4FzHU7yNaplMJpNphcqgy51eVJjoBRsrWR5ocdqTn7eGuB0PQevAgoSOBWi9qSLJz9ck/euG5P7Rcrz3P+K4euDG3es8A5PJZDKZVqgMuubCpms5iXBFo3iK3+nmgSs1dwFo7VaQ4J4FiRxd0i15Uj+sS+6vTd1sepgjWr1stby8N5lMJpNphWvlQtfatvrFUujaZIVDF0HLE7+7XuK5CpGe+Yc2G5PgU4oSfUtZEl+tSeamhoKWTh0SsjxP8QZaJpPJZDJNqJUJXQAEen+PfxzQRe/oG69wmy5OIdIofi+A1nZQAhAaQp5sS6P4osQvA2hd35R8CaClG393uXgw0DKZTCaTab1aWdDliiNd3C8x/umKBAkb+RUGXbsBrDxbLWhwyzEZSAK0kA/BgwoSfklJ4h+oSvr7dcn+FbBVbcvwv1zg6spLk8lkMplMU9OKhC7Vf9bo9juhw4oymB11/GR502vLUUybB1l0vroVIIvOWOkpfjeAFo3iTy9L8uKaZK5rSO7uluTXALY80DIv8SaTyWQyzUorE7oAXJwey/6xIZGXlWVwY8AIocszHl8uImj5PcXTYz5ttLYDaOG34P5F3Zoofk5F0j+tS/6Opoxww26Clt9Wy82zdfLRZDKZTCbTlLVioYtAkW+3Jf7JqgT2Kjir9DjFuNTBywMtHjmitYtzVOjaCrC1eUFCBxQlek5ZklfWJQfQGkY+0Ch+dfd2PJ66889kMplMJtO0taKnF2kQnru9KfGzyjIQHtWpt8BeLrT4trVZMiJYERy5OIDQxVWZkVFNWxBgGTvb2fsw++emjNwP0PqPs++hLixgnpineJPJZDKZ5k0rGroUNh5sS/bGpkTPqMjgRu70G6GL9k8El15w009iHDl9CNgaxOeBxwOyMgDIx49J8KkFib6hJMlPViXz87rk727JSKstqx5EurvhymDLZDKZTKZ51cqFLlcc4cmvbUvmpqbE3lKR4NOKMkTbpy0gb4Vfv005ErQ4okXQ4ojcZtBqCMAYOLwg4RNKEn93RVLfqKvdWn6sJcMc2fq34yXePMWbTCaTybTwWvHQRakLiUfXSO7OliQ+V5Pw8SUJPKkgQzsDZOiNnUeCl6eFHgHj/fz3J2g9AWLc8H9wN8dOK/LisiQurErml3VdfUhfZN40amf1Ib/bqJbJZDKZTAsugy7KgxDaNzXb6jIh9p6KhA4sSmBTF3AIOoCvwE4O6HRAiMf5gDAvXBe0OHWo8Mf701P8tojLNoCt5xYlfl5F0lfRKN4BLR3JokG8gZbJZDKZTH0jgy6/CCYEFRyHG23JXt+Q+PmAr6cXZWhDgM/AqAwGoe0APXQxsS+0N+CHU31zCV4Iq2MQz3vsju9bQrj30MCYBHctSPSMsiS/W5fsbU1nk2ndkqdr9WF3+kwmk8lkMi2aDLomEiBm+IG25Astyfy2KalLaxJ/R0XCLy5K4NCCDG7ymBf3wW0AQ08EFHk2YLMRYQvgNbgtwh2GkoC6Tcck9LSiRF9fkuSFNcn8rCG5v7cAW4jjw05ce6bBZDKZTCZT38igaz1Se68HAV/ltuT+1pL0rxuSvKwmsbMrEn1NWcLHFyV4REECexRkaHPA0mq/AE1TlnPNEAArsEtBgjSIf0FJoq8rS/y9VUl+sybZGxuAwHbHKF5H5bwpRJPJZDKZTH0tg67JxGlGHj24gehqYbgOCLu7JdlbmpL+WV0Sn61K7J2AsJeXJfJcgNhRJQkfWpLQQQCyvQFQALLQkx0FnwTtDnnf93SM4MOHFyVyNCDrRWWJnVGRxCerkv5JXX1q5UdbMrwGoNUVF51CtGlEk8lkMpmWhAy61icPbPyA8z/Hezul05D3A8JaLcnXW5K7tynZm5uSuboh6R/WJXl5TZKXViV1MfTFqiQ+V5X4F6qSxPfkJdCXa5K+si6Za+uS+2tD8iWE02zJCA3iEbZ3H7XV6hUXk8lkMplMS0IGXTMRgYfTey74rBIcVY6Hd0f4zuN/8f9E4rU4Oue6YhgIS8PscS+TyWQymUxLUwZdJpPJZDKZTAsggy6TyWQymUymBZBBl8lkMplMJtMCyKDLZDKZTCaTaQFk0GUymUwmk8m0ADLoMplMJpPJZFoAGXSZTCaTyWQyLYAMukwmk8lkMpnmXWvk/wGtOXO+EDTLhwAAAABJRU5ErkJggg==;" vertex="1" parent="1">
          <mxGeometry x="820" y="35.22" width="257" height="71.17" as="geometry" />
        </mxCell>
        <mxCell id="h6uiqYct_Y92gPMNIy-R-34" value="" style="sketch=0;pointerEvents=1;shadow=0;dashed=0;html=1;strokeColor=none;labelPosition=center;verticalLabelPosition=bottom;verticalAlign=top;align=center;fillColor=#505050;shape=mxgraph.mscae.intune.update;fontSize=29;" vertex="1" parent="1">
          <mxGeometry x="672" y="573" width="20" height="20" as="geometry" />
        </mxCell>
      </root>
    </mxGraphModel>
  </diagram>
</mxfile>
